<svg width="571" height="434" viewBox="0 0 571 434" fill="none" xmlns="http://www.w3.org/2000/svg">
<g clip-path="url(#clip0_1756_4308)">
<path d="M570.999 391.871H0.140625V434.001H570.999V391.871Z" fill="#156DBF"/>
<path d="M570.208 391.906H0V390.498H570.463L570.208 391.906Z" fill="#989898"/>
<path d="M447.861 162.165V286.881H123.281V162.165C123.281 120.776 139.118 80.954 167.548 50.8547C195.979 20.7554 234.85 2.65729 276.202 0.267507C279.3 0.0869832 282.423 -0.00217205 285.571 4.01723e-05C287.365 4.01723e-05 289.152 0.0267719 290.925 0.0936485C332.103 1.39572 371.232 18.3511 400.325 47.4993C401.202 48.3753 402.065 49.258 402.928 50.1541C431.777 80.3194 447.872 120.441 447.861 162.165Z" fill="#156DBF"/>
<path d="M290.924 0.0936781V286.881H276.201V0.267507C279.3 0.0869832 282.423 -0.00217205 285.571 4.01723e-05C287.364 4.01723e-05 289.151 0.0267756 290.924 0.0936781Z" fill="white"/>
<path d="M415.41 64.8662H155.732C159.598 59.7198 163.766 54.8072 168.214 50.1543H402.928C407.376 54.8072 411.544 59.7198 415.41 64.8662Z" fill="white"/>
<path d="M423.158 106.995H308.123V301.593H423.158V106.995Z" fill="white"/>
<path d="M348.24 139.871H330.84V157.258H348.24V139.871Z" fill="#00AAEE"/>
<path d="M376.274 139.871H358.873V157.258H376.274V139.871Z" fill="#00AAEE"/>
<path d="M404.309 139.871H386.908V157.258H404.309V139.871Z" fill="#00AAEE"/>
<path d="M348.723 179.475H331.322V196.862H348.723V179.475Z" fill="#00AAEE"/>
<path d="M376.758 179.475H359.357V196.862H376.758V179.475Z" fill="#00AAEE"/>
<path d="M404.791 179.475H387.391V196.862H404.791V179.475Z" fill="#00AAEE"/>
<path d="M349.207 219.079H331.807V236.466H349.207V219.079Z" fill="#00AAEE"/>
<path d="M377.24 219.079H359.84V236.466H377.24V219.079Z" fill="#00AAEE"/>
<path d="M405.276 219.079H387.875V236.466H405.276V219.079Z" fill="#00AAEE"/>
<path d="M349.69 258.683H332.289V276.07H349.69V258.683Z" fill="#00AAEE"/>
<path d="M377.725 258.683H360.324V276.07H377.725V258.683Z" fill="#00AAEE"/>
<path d="M405.758 258.683H388.357V276.07H405.758V258.683Z" fill="#00AAEE"/>
<path d="M349.69 258.683H332.289V276.07H349.69V258.683Z" fill="#00AAEE"/>
<path d="M377.725 258.683H360.324V276.07H377.725V258.683Z" fill="#00AAEE"/>
<path d="M405.758 258.683H388.357V276.07H405.758V258.683Z" fill="#00AAEE"/>
<path d="M161.863 247.313C175.108 247.313 185.845 236.584 185.845 223.35C185.845 210.115 175.108 199.386 161.863 199.386C148.618 199.386 137.881 210.115 137.881 223.35C137.881 236.584 148.618 247.313 161.863 247.313Z" fill="white"/>
<path d="M161.929 223.35H161.995L163.181 291.291H160.678L161.929 223.35Z" fill="white"/>
<path d="M166.297 260.356L165.744 259.308L161.78 261.393L162.332 262.442L166.297 260.356Z" fill="white"/>
<path d="M232.37 224.415C252.511 224.415 268.839 208.099 268.839 187.973C268.839 167.847 252.511 151.532 232.37 151.532C212.228 151.532 195.9 167.847 195.9 187.973C195.9 208.099 212.228 224.415 232.37 224.415Z" fill="white"/>
<path d="M232.47 187.974H232.57L234.373 291.291H230.566L232.47 187.974Z" fill="white"/>
<path d="M239.112 244.25L238.271 242.655L232.243 245.827L233.083 247.421L239.112 244.25Z" fill="white"/>
<path d="M157.151 153.177L163.312 148.254C158.526 147.726 156.56 150.334 155.755 152.398C152.016 150.847 147.945 152.88 147.945 152.88L160.272 157.352C159.65 155.692 158.568 154.244 157.151 153.177Z" fill="white"/>
<path d="M222.067 113.054L228.228 108.13C223.442 107.603 221.476 110.211 220.671 112.275C216.932 110.724 212.861 112.757 212.861 112.757L225.188 117.229C224.566 115.569 223.484 114.121 222.067 113.054Z" fill="white"/>
<path d="M197.306 151.17L203.466 146.247C198.68 145.719 196.714 148.327 195.909 150.392C192.17 148.84 188.1 150.873 188.1 150.873L200.426 155.345C199.804 153.685 198.722 152.237 197.306 151.17Z" fill="white"/>
<path d="M464.926 272.17H106.215V301.594H464.926V272.17Z" fill="#156DBF"/>
<path d="M52.6381 348.762C52.6381 348.762 -19.9214 315.385 5.5687 292.239C31.0588 269.093 52.6381 348.762 52.6381 348.762Z" fill="#156DBF"/>
<path d="M51.3756 356.549C51.3756 356.549 18.0245 247.053 67.1352 252.289C116.246 257.526 51.3756 356.549 51.3756 356.549Z" fill="#156DBF"/>
<path d="M27.0586 346.839L28.4584 365.155L28.4806 365.472C28.4793 368.332 28.6239 371.19 28.9139 374.036C30.8136 392.719 38.979 401.233 48.522 401.233C58.065 401.233 65.8749 392.719 67.7746 374.036C68.0646 371.19 68.2092 368.332 68.2079 365.472L68.219 365.216L68.2245 365.155L69.6299 346.839H27.0586Z" fill="#156DBF"/>
<path d="M68.2251 365.155L68.2196 365.216L68.2085 365.472C68.2098 368.332 68.0652 371.19 67.7752 374.036H28.9145C28.6245 371.19 28.4799 368.332 28.4812 365.472L28.459 365.155H68.2251Z" fill="white"/>
<path d="M538.124 348.762C538.124 348.762 465.565 315.385 491.055 292.239C516.545 269.093 538.124 348.762 538.124 348.762Z" fill="#156DBF"/>
<path d="M536.86 356.549C536.86 356.549 503.509 247.053 552.62 252.289C601.73 257.526 536.86 356.549 536.86 356.549Z" fill="#156DBF"/>
<path d="M512.545 346.839L513.945 365.155L513.967 365.472C513.966 368.332 514.11 371.19 514.4 374.036C516.3 392.719 524.465 401.233 534.008 401.233C543.551 401.233 551.361 392.719 553.261 374.036C553.551 371.19 553.695 368.332 553.694 365.472L553.705 365.216L553.711 365.155L555.116 346.839H512.545Z" fill="#156DBF"/>
<path d="M553.709 365.155L553.704 365.216L553.693 365.472C553.694 368.332 553.55 371.19 553.26 374.036H514.399C514.109 371.19 513.964 368.332 513.966 365.472L513.943 365.155H553.709Z" fill="white"/>
<path d="M441.783 415.07L437.026 415.629C433.268 417.892 428.858 418.744 423.974 418.571C423.292 418.551 422.627 418.352 422.046 417.996C421.464 417.64 420.986 417.138 420.658 416.541C420.374 416.016 420.214 415.433 420.192 414.837C420.17 414.241 420.286 413.648 420.531 413.104C420.776 412.56 421.143 412.08 421.604 411.701C422.065 411.322 422.607 411.054 423.189 410.919L426.803 410.078L435.525 401.554L440.787 392.038L448.43 392.914L450.022 405.001C450.224 407.419 449.477 409.821 447.94 411.7C446.403 413.579 444.195 414.787 441.783 415.07Z" fill="#FFB8B8"/>
<path d="M367.693 408.955L363.031 410.052C359.556 412.728 355.271 414.077 350.399 414.461C349.719 414.518 349.036 414.397 348.418 414.109C347.799 413.822 347.267 413.378 346.873 412.821C346.531 412.333 346.306 411.772 346.216 411.182C346.126 410.592 346.174 409.99 346.355 409.421C346.536 408.853 346.846 408.334 347.261 407.905C347.676 407.476 348.184 407.149 348.746 406.948L352.241 405.701L359.935 396.239L364.077 386.187H371.771L374.73 398.013C375.206 400.393 374.738 402.864 373.425 404.906C372.113 406.948 370.057 408.4 367.693 408.955Z" fill="#FFB8B8"/>
<path d="M363.872 386.855L372.572 388.193L386.291 318.98L410.049 278.523L438.827 396.218L449.534 398.224C448.334 331.945 454.194 248.504 440.834 238.399L382.611 245.087L357.18 313.296L363.872 386.855Z" fill="#2F2E41"/>
<path d="M406.034 135.416C417.122 135.416 426.111 126.434 426.111 115.355C426.111 104.275 417.122 95.293 406.034 95.293C394.946 95.293 385.957 104.275 385.957 115.355C385.957 126.434 394.946 135.416 406.034 135.416Z" fill="#FFB8B8"/>
<path d="M434.141 146.115L410.048 150.128L404.025 128.728L421.425 123.379L434.141 146.115Z" fill="#FFB8B8"/>
<path d="M444.18 241.074L379.934 247.093C385.084 229.197 389.803 211.364 385.957 193.595C381.072 177.732 385.787 168.298 398.672 160.828L407.372 141.435L430.796 138.76C436.998 148.725 439.536 160.538 437.972 172.169C434.634 197.462 435.536 220.933 444.18 241.074Z" fill="#00AAEE"/>
<path d="M405.582 91.6607C398.881 93.1903 391.255 95.3577 390.827 97.3722C383.935 99.1078 378.732 103.265 377.67 109.603C377.581 110.15 377.614 110.711 377.765 111.245C377.917 111.779 378.184 112.273 378.547 112.693C378.91 113.112 379.361 113.447 379.868 113.674C380.375 113.901 380.925 114.013 381.481 114.004C385.229 113.956 390.856 113.597 394.572 112.047C405.366 118.996 407.178 137.072 402.464 149.375L409.882 148.696L417.556 126.248L419.516 147.813L436.444 145.577L434.264 118.077C433.593 111.595 431.386 105.367 427.824 99.9083C427.454 99.3602 427.05 98.8363 426.613 98.3399C424.037 95.4328 420.722 93.2768 417.02 92.1008C413.317 90.9248 409.364 90.7727 405.582 91.6607Z" fill="#2F2E41"/>
<path d="M363.065 421.967C363.029 422.295 363.062 422.626 363.161 422.94C363.261 423.254 363.425 423.543 363.644 423.79C363.862 424.036 364.13 424.234 364.43 424.371C364.73 424.508 365.055 424.58 365.384 424.584L372.913 424.661C373.319 424.633 373.698 424.452 373.975 424.155C374.253 423.858 374.407 423.467 374.407 423.06C374.407 422.74 374.311 422.427 374.131 422.161C373.951 421.896 373.696 421.69 373.398 421.571L371.176 420.683L367.946 416.164H365.362C364.093 417.855 363.3 419.854 363.067 421.955L363.065 421.967Z" fill="#FFB8B8"/>
<path d="M345.045 421.967C345.081 422.295 345.048 422.626 344.949 422.94C344.849 423.254 344.685 423.543 344.466 423.79C344.248 424.036 343.98 424.234 343.68 424.371C343.38 424.508 343.055 424.58 342.726 424.584L335.197 424.661C334.791 424.633 334.412 424.452 334.134 424.155C333.857 423.858 333.703 423.467 333.703 423.06C333.703 422.74 333.799 422.427 333.979 422.161C334.159 421.896 334.414 421.69 334.712 421.571L336.934 420.683L340.164 416.164H342.748C344.017 417.855 344.81 419.854 345.043 421.955L345.045 421.967Z" fill="#FFB8B8"/>
<path d="M339.52 416.165H343.396L356.964 357.416L364.071 416.811H368.593L374.731 340.308L343.396 339.985L339.52 416.165Z" fill="#3F3D56"/>
<path d="M322.074 308.351H327.243V296.084L328.419 293.735C328.655 293.263 328.776 292.742 328.772 292.215C328.769 291.688 328.64 291.169 328.398 290.701C328.156 290.233 327.806 289.828 327.378 289.52C326.949 289.213 326.454 289.011 325.933 288.931C325.455 288.857 324.968 288.888 324.503 289.02C324.039 289.153 323.609 289.384 323.243 289.698C322.876 290.012 322.582 290.402 322.38 290.84C322.179 291.279 322.074 291.756 322.074 292.238V308.351Z" fill="#FFB8B8"/>
<path d="M352.763 278.008C359.364 278.008 364.716 272.661 364.716 266.065C364.716 259.468 359.364 254.121 352.763 254.121C346.162 254.121 340.811 259.468 340.811 266.065C340.811 272.661 346.162 278.008 352.763 278.008Z" fill="#FFB8B8"/>
<path d="M347.918 286.401H360.193V272.198H347.918V286.401Z" fill="#FFB8B8"/>
<path d="M342.103 341.922C352.969 348.622 364.457 347.967 376.346 342.567L373.762 282.527L360.194 281.882L345.98 283.819L338.873 289.629L342.103 341.922Z" fill="#00AAEE"/>
<path d="M329.182 320.617L343.396 309.642L338.873 289.629L330.474 305.123L327.89 302.541L320.137 308.351L329.182 320.617Z" fill="#00AAEE"/>
<path d="M392.277 283.558L387.756 286.062L381.805 275.333L379.637 273.848C379.202 273.549 378.843 273.153 378.59 272.69C378.338 272.227 378.198 271.711 378.183 271.184C378.168 270.657 378.277 270.134 378.503 269.657C378.728 269.181 379.063 268.764 379.481 268.441C379.862 268.146 380.304 267.937 380.774 267.828C381.244 267.719 381.733 267.713 382.206 267.81C382.679 267.907 383.125 268.105 383.514 268.391C383.903 268.677 384.226 269.043 384.46 269.465L386.326 272.83L392.277 283.558Z" fill="#FFB8B8"/>
<path d="M366.979 301.572L384.133 292.473L393.145 287.692L394.437 279.945L388.622 274.135L381.515 278.654L382.162 283.819L373.762 282.527L366.979 301.572Z" fill="#00AAEE"/>
<path d="M355.349 275.749C363.199 275.749 369.563 269.39 369.563 261.546C369.563 253.702 363.199 247.343 355.349 247.343C347.499 247.343 341.135 253.702 341.135 261.546C341.135 269.39 347.499 275.749 355.349 275.749Z" fill="#2F2E41"/>
<path d="M363.101 251.862C366.67 251.862 369.562 248.972 369.562 245.406C369.562 241.841 366.67 238.95 363.101 238.95C359.533 238.95 356.641 241.841 356.641 245.406C356.641 248.972 359.533 251.862 363.101 251.862Z" fill="#2F2E41"/>
<path d="M362.788 250.804C364.069 251.472 365.537 251.692 366.958 251.428C368.378 251.164 369.669 250.432 370.624 249.348C371.579 248.265 372.143 246.893 372.226 245.452C372.309 244.01 371.905 242.583 371.08 241.397C371.827 241.959 372.444 242.676 372.886 243.499C373.329 244.322 373.587 245.231 373.644 246.163C373.7 247.095 373.554 248.029 373.214 248.899C372.874 249.769 372.349 250.555 371.675 251.203C371.002 251.851 370.195 252.344 369.312 252.65C368.429 252.956 367.49 253.066 366.559 252.974C365.629 252.881 364.73 252.588 363.924 252.115C363.119 251.641 362.425 250.998 361.893 250.231C362.175 250.446 362.474 250.638 362.788 250.804Z" fill="#2F2E41"/>
<path d="M402.687 261.136L403.131 276.661C403.192 278.801 402.439 280.885 401.024 282.492C399.61 284.1 397.638 285.113 395.506 285.326C394.14 285.462 392.762 285.265 391.49 284.751C390.217 284.238 389.089 283.423 388.201 282.377C387.314 281.331 386.694 280.085 386.395 278.747C386.096 277.409 386.127 276.018 386.485 274.694L389.971 261.805L400.01 206.969L399.341 174.871L420.756 174.202L416.741 210.313L402.687 261.136Z" fill="#FFB8B8"/>
<path d="M422.094 177.545C414.336 174.592 405.761 174.592 398.002 177.545L399.34 150.796C399.34 147.959 400.469 145.237 402.477 143.23C404.485 141.224 407.208 140.097 410.048 140.097C412.888 140.097 415.612 141.224 417.62 143.23C419.628 145.237 420.756 147.959 420.756 150.796L422.094 177.545Z" fill="#00AAEE"/>
</g>
<defs>
<clipPath id="clip0_1756_4308">
<rect width="571" height="434" fill="white"/>
</clipPath>
</defs>
</svg>
