<svg width="562" height="587" viewBox="0 0 562 587" fill="none" xmlns="http://www.w3.org/2000/svg">
<g clip-path="url(#clip0_743_610)">
<path d="M281.558 474.096C280.51 472.327 275.974 474.221 275.14 472.616C274.309 471.016 278.523 468.579 280.931 463.011C281.365 462.007 284.102 455.68 282.076 453.728C278.237 450.027 260.667 465.299 254.519 460.301C253.169 459.204 252.227 457.015 248.143 453.46C246.518 452.046 245.536 451.407 244.585 451.645C243.236 451.982 243.129 453.788 241.682 457.34C239.513 462.667 238.229 462.346 236.965 466.596C236.027 469.751 236.241 471.585 235.137 471.943C233.575 472.448 232.136 469.102 230.156 469.401C228.135 469.707 226.914 473.604 226.528 476.521C225.804 481.996 227.813 485.608 228.927 489.407C230.137 493.535 230.856 499.813 228.061 508.7L200.396 586.688C206.503 570.685 224.188 526.817 231.618 510.515C233.764 505.809 236.132 501.036 240.996 499.152C245.678 497.338 252.108 498.421 260.307 496.445C261.264 496.214 263.921 495.538 264.255 493.974C264.532 492.682 262.969 491.96 263.209 490.749C263.531 489.125 266.604 489.105 270.381 487.232C273.044 485.911 274.703 484.339 276.13 482.988C276.56 482.581 282.954 476.451 281.558 474.096Z" fill="#F2F2F2"/>
<path d="M172.717 515.152C171.547 515.156 171.167 517.93 170.139 517.877C169.114 517.823 169.135 515.05 167.098 512.261C166.731 511.759 164.417 508.589 162.875 509.021C159.952 509.838 162.374 522.873 158.148 524.45C157.221 524.796 155.875 524.627 152.953 525.607C151.79 525.997 151.193 526.295 151.036 526.831C150.812 527.59 151.667 528.164 152.992 529.899C154.979 532.502 154.451 533.039 156.171 534.886C157.448 536.257 158.41 536.681 158.267 537.327C158.064 538.24 156.007 537.981 155.583 539.039C155.15 540.12 156.709 541.844 158.028 542.875C160.505 544.811 162.857 544.866 165.042 545.415C167.416 546.012 170.703 547.471 174.256 551.408L204.53 587.495C198.442 579.878 182.025 558.537 176.173 550.184C174.483 547.773 172.825 545.232 173.304 542.3C173.765 539.478 176.152 536.632 177.548 532.036C177.711 531.5 178.146 530 177.476 529.384C176.921 528.876 176.116 529.435 175.592 528.968C174.888 528.341 175.765 526.826 175.936 524.431C176.056 522.742 175.764 521.474 175.513 520.383C175.437 520.054 174.275 515.146 172.717 515.152Z" fill="#F2F2F2"/>
<path d="M196.063 520.396L195.358 514.098L195.68 513.621C197.171 511.413 197.93 509.258 197.94 507.211C197.941 506.886 197.926 506.56 197.911 506.229C197.85 504.915 197.774 503.283 198.625 501.379C199.102 500.318 200.442 497.861 202.457 498.165C203 498.241 203.41 498.49 203.721 498.782C203.767 498.709 203.814 498.636 203.864 498.557C204.492 497.6 204.989 497.189 205.467 496.794C205.835 496.49 206.215 496.177 206.811 495.435C207.072 495.109 207.276 494.823 207.447 494.583C207.968 493.857 208.649 492.99 209.85 493.005C211.132 493.066 211.804 494.127 212.249 494.829C213.044 496.082 213.404 496.985 213.642 497.584C213.729 497.803 213.828 498.05 213.878 498.126C214.291 498.734 217.651 498.165 218.917 497.958C221.76 497.484 224.22 497.074 225.233 498.868C225.96 500.151 225.42 501.847 223.582 504.046C223.009 504.73 222.399 505.25 221.858 505.657C222.307 505.925 222.708 506.335 222.87 506.98C223.253 508.507 221.942 510.036 218.974 511.532C218.237 511.906 217.245 512.405 215.855 512.645C215.2 512.757 214.61 512.785 214.106 512.8C214.095 513.092 214.027 513.408 213.849 513.734C213.328 514.691 212.243 515.147 210.608 515.038C208.809 514.944 207.327 514.6 206.02 514.299C204.879 514.038 203.896 513.816 203.124 513.867C201.693 513.983 200.59 515.129 199.295 516.616L196.063 520.396Z" fill="#F2F2F2"/>
<path d="M199.333 482.902L193.424 485.181L192.881 484.99C190.369 484.108 188.092 483.919 186.111 484.43C185.796 484.511 185.485 484.608 185.169 484.707C183.914 485.099 182.355 485.586 180.299 485.246C179.152 485.053 176.437 484.379 176.22 482.352C176.156 481.808 176.293 481.347 176.496 480.972C176.414 480.946 176.331 480.919 176.242 480.891C175.157 480.526 174.634 480.149 174.13 479.786C173.743 479.508 173.344 479.219 172.476 478.831C172.095 478.661 171.767 478.536 171.491 478.431C170.656 478.111 169.646 477.672 169.356 476.506C169.09 475.25 169.945 474.33 170.511 473.721C171.521 472.634 172.303 472.057 172.821 471.674C173.011 471.535 173.224 471.376 173.285 471.309C173.768 470.754 172.366 467.647 171.845 466.475C170.665 463.843 169.644 461.567 171.122 460.131C172.178 459.102 173.955 459.194 176.547 460.416C177.354 460.797 178.011 461.254 178.542 461.675C178.687 461.173 178.982 460.681 179.564 460.36C180.943 459.602 182.754 460.483 184.953 462.976C185.502 463.594 186.235 464.428 186.82 465.713C187.095 466.318 187.271 466.882 187.414 467.366C187.699 467.302 188.022 467.288 188.381 467.378C189.44 467.639 190.156 468.574 190.465 470.184C190.83 471.949 190.873 473.47 190.914 474.811C190.951 475.982 190.985 476.99 191.231 477.723C191.706 479.079 193.094 479.856 194.86 480.732L199.333 482.902Z" fill="#F2F2F2"/>
<path d="M196.063 464.35L195.358 458.052L195.68 457.575C197.171 455.368 197.93 453.212 197.94 451.165C197.941 450.84 197.926 450.515 197.911 450.183C197.85 448.87 197.774 447.237 198.625 445.333C199.102 444.272 200.442 441.815 202.457 442.119C203 442.195 203.41 442.445 203.721 442.736C203.767 442.664 203.814 442.591 203.864 442.511C204.492 441.554 204.989 441.143 205.467 440.748C205.835 440.444 206.215 440.131 206.811 439.389C207.072 439.063 207.276 438.778 207.447 438.537C207.968 437.811 208.649 436.944 209.85 436.959C211.132 437.02 211.804 438.081 212.249 438.784C213.044 440.036 213.404 440.939 213.642 441.538C213.729 441.757 213.828 442.004 213.878 442.08C214.291 442.688 217.651 442.119 218.917 441.912C221.76 441.438 224.22 441.028 225.233 442.822C225.96 444.105 225.42 445.801 223.582 448C223.009 448.684 222.399 449.204 221.858 449.611C222.307 449.879 222.708 450.29 222.87 450.934C223.253 452.461 221.942 453.99 218.974 455.486C218.237 455.86 217.245 456.359 215.855 456.599C215.2 456.712 214.61 456.739 214.106 456.754C214.095 457.046 214.027 457.362 213.849 457.688C213.328 458.645 212.243 459.102 210.608 458.992C208.809 458.898 207.327 458.554 206.02 458.253C204.879 457.992 203.896 457.77 203.124 457.821C201.693 457.937 200.59 459.083 199.295 460.57L196.063 464.35Z" fill="#F2F2F2"/>
<path d="M202.503 586.585L201.184 585.758L199.646 585.934C199.622 585.792 199.538 585.463 199.412 584.949C198.724 582.134 196.625 573.565 194.875 560.07C193.653 550.65 192.961 540.966 192.819 531.281C192.676 521.581 193.135 514.238 193.502 508.336C193.78 503.885 194.118 499.646 194.449 495.517C195.33 484.485 196.162 474.064 195.543 462.528C195.406 459.953 195.119 454.592 191.989 448.888C190.173 445.579 187.672 442.642 184.554 440.161L186.493 437.722C189.935 440.465 192.702 443.718 194.718 447.392C198.189 453.716 198.502 459.557 198.652 462.364C199.281 474.104 198.441 484.625 197.55 495.763C197.222 499.877 196.885 504.097 196.608 508.531C196.244 514.378 195.789 521.657 195.931 531.232C196.07 540.802 196.754 550.368 197.959 559.669C199.688 572.993 201.756 581.434 202.436 584.207C202.797 585.688 202.873 585.998 202.503 586.585Z" fill="#F2F2F2"/>
<path d="M178.847 445.108C178.719 445.108 178.59 445.105 178.459 445.096C175.809 444.953 173.355 443.366 171.164 440.38C170.137 438.975 169.611 437.373 168.563 434.177C168.4 433.684 167.61 431.185 167.13 427.746C166.815 425.499 166.855 424.559 167.3 423.729C167.794 422.805 168.593 422.16 169.492 421.725C169.453 421.427 169.485 421.12 169.614 420.807C170.144 419.509 171.554 419.679 172.317 419.761C172.703 419.81 173.185 419.873 173.705 419.846C174.522 419.807 174.961 419.563 175.627 419.198C176.263 418.849 177.055 418.414 178.23 418.174C180.546 417.69 182.486 418.347 183.126 418.563C186.491 419.685 188.151 422.303 190.071 425.334C190.454 425.943 191.769 428.156 192.636 431.191C193.262 433.38 193.174 434.353 192.986 435.077C192.603 436.564 191.699 437.415 189.403 439.294C187.005 441.262 185.801 442.247 184.768 442.846C182.363 444.235 180.852 445.108 178.847 445.108Z" fill="#F2F2F2"/>
<path d="M270.04 580.339L278.189 580.338L282.066 548.887L270.038 548.888L270.04 580.339Z" fill="#FFB6B6"/>
<path d="M297.961 580.154C298.215 580.581 298.349 581.961 298.349 582.459C298.349 583.987 297.111 585.226 295.583 585.226H270.345C269.303 585.226 268.458 584.381 268.458 583.338V582.287C268.458 582.287 267.209 579.127 269.78 575.233C269.78 575.233 272.975 578.282 277.748 573.506L279.156 570.954L289.346 578.411L294.994 579.106C296.23 579.258 297.326 579.083 297.961 580.154Z" fill="#2F2E41"/>
<path d="M245.203 580.339L253.353 580.338L257.229 548.887L245.201 548.888L245.203 580.339Z" fill="#FFB6B6"/>
<path d="M273.124 580.154C273.378 580.581 273.512 581.961 273.512 582.459C273.512 583.987 272.274 585.226 270.746 585.226H245.508C244.466 585.226 243.621 584.381 243.621 583.338V582.287C243.621 582.287 242.373 579.127 244.943 575.233C244.943 575.233 248.138 578.282 252.911 573.506L254.319 570.954L264.509 578.411L270.157 579.106C271.393 579.258 272.489 579.083 273.124 580.154Z" fill="#2F2E41"/>
<path d="M279.455 444.516L288.147 478.197L283.801 564.688L263.311 566.06L262.069 516.271L259.585 567.524L238.474 563.131L237.232 450.373L279.455 444.516Z" fill="#2F2E41"/>
<path d="M199.018 466.087C196.155 470.979 196.359 476.419 199.472 478.238C202.585 480.057 207.428 477.567 210.291 472.673C211.461 470.734 212.15 468.543 212.3 466.284L224.167 445.406L214.251 440.053L203.605 461.203C201.708 462.442 200.135 464.117 199.018 466.087Z" fill="#FFB6B6"/>
<path d="M234.747 381.714C234.747 381.714 254.253 383.746 252.86 392.681C251.468 401.616 215.688 467.196 215.688 467.196L200.798 457.964L234.747 381.714Z" fill="#00AAEE"/>
<path d="M239.716 384.875L254.618 362.51L269.52 368.722L265.794 388.603L239.716 384.875Z" fill="#FFB6B6"/>
<path d="M240.957 379.905L267.036 378.662L284.422 383.632L288.148 475.578L235.99 470.608V422.121L228.539 397.3L240.957 379.905Z" fill="#00AAEE"/>
<path d="M283.997 441.927C283.08 439.252 282.715 436.429 282.952 433.612C283.619 425.662 283.744 410.086 275.646 403.049L271.071 398.091C270.976 397.988 270.869 397.899 270.772 397.799L278.341 379.999L273.769 378.054L266.744 394.575C263.628 392.678 260.034 391.627 256.317 391.627C252.024 391.627 247.919 393.028 244.528 395.495L240.244 379.79L235.451 381.099L240.808 399.009C240.613 399.247 240.401 399.466 240.216 399.714L237.599 403.228C236.962 404.083 236.258 404.878 235.496 405.625C233.89 407.199 230.756 411.021 230.725 416.905C230.715 418.918 230.302 420.908 229.689 422.825L226.578 432.551C226.286 433.464 226.057 434.394 225.901 435.34C224.53 443.669 219.782 482.907 252.229 482.122C282.477 481.39 284.468 462.962 284.291 456.841C284.253 455.513 284.372 454.196 284.62 452.89C285.074 450.496 285.482 446.26 283.997 441.927Z" fill="#3F3D56"/>
<path d="M420.641 44.751L423.469 88.446L387.902 96.6116L390.379 61.2821L420.641 44.751Z" fill="#FFB6B6"/>
<path d="M423.349 575.791L407.317 575.789L399.69 513.917L423.352 513.919L423.349 575.791Z" fill="#FFB6B6"/>
<path d="M368.421 575.427C367.922 576.268 367.658 578.983 367.658 579.961C367.658 582.968 370.094 585.406 373.1 585.406H422.749C424.799 585.406 426.461 583.743 426.461 581.691V579.623C426.461 579.623 428.917 573.407 423.861 565.746C423.861 565.746 417.576 571.745 408.185 562.349L405.415 557.329L385.369 571.998L374.258 573.366C371.827 573.666 369.671 573.32 368.421 575.427Z" fill="#2F2E41"/>
<path d="M466.813 575.791L450.781 575.789L443.155 513.917L466.816 513.919L466.813 575.791Z" fill="#FFB6B6"/>
<path d="M411.885 575.427C411.386 576.268 411.123 578.983 411.123 579.961C411.123 582.968 413.559 585.406 416.564 585.406H466.214C468.264 585.406 469.926 583.743 469.926 581.691V579.623C469.926 579.623 472.382 573.407 467.325 565.746C467.325 565.746 461.04 571.745 451.649 562.349L448.88 557.329L428.834 571.998L417.722 573.366C415.291 573.666 413.136 573.32 411.885 575.427Z" fill="#2F2E41"/>
<path d="M476.908 281.746C476.908 281.746 490.568 299.141 488.084 309.081C485.601 319.022 468.215 547.644 468.215 547.644L443.378 546.402L428.476 341.387L424.643 547.644L401.155 546.402L371.351 290.444L476.908 281.746Z" fill="#2F2E41"/>
<path d="M333.317 337.211C330.968 346.216 324.421 352.304 318.693 350.808C312.965 349.311 310.226 340.799 312.577 331.79C313.466 328.179 315.207 324.833 317.654 322.033L328.086 284L345.819 289.279L333.653 326.211C334.42 329.852 334.305 333.624 333.317 337.211Z" fill="#FFB6B6"/>
<path d="M391.749 81.0117C411.347 81.0117 427.234 65.1162 427.234 45.508C427.234 25.8999 411.347 10.0044 391.749 10.0044C372.152 10.0044 356.265 25.8999 356.265 45.508C356.265 65.1162 372.152 81.0117 391.749 81.0117Z" fill="#FFB6B6"/>
<path d="M387.495 90.3989L424.75 82.9438L465.731 104.067L474.424 239.501L485.601 290.444L370.109 291.686L375.077 223.348L367.625 115.249L387.495 90.3989Z" fill="#E6E6E6"/>
<path d="M378.802 118.977C378.802 118.977 358.933 112.764 351.482 123.947C344.031 135.129 330.37 235.773 330.37 235.773L316.71 311.566L341.547 315.294L382.528 182.345L378.802 118.977Z" fill="#E6E6E6"/>
<path d="M559.532 293.651C563.58 302.03 562.54 310.913 557.21 313.489C551.88 316.066 544.278 311.362 540.23 302.979C538.566 299.653 537.724 295.976 537.772 292.257L521.066 256.536L537.987 249.049L552.659 285.059C555.603 287.333 557.959 290.279 559.532 293.651Z" fill="#FFB6B6"/>
<path d="M450.178 105.355C450.178 105.355 468.022 94.6278 477.899 103.736C487.777 112.845 524.78 207.424 524.78 207.424L555.924 277.854L532.667 287.338L461.498 167.814L450.178 105.355Z" fill="#E6E6E6"/>
<path d="M536 585.5C536 586.332 535.548 587 534.986 587H169.014C168.452 587 168 586.332 168 585.5C168 585.097 168.102 584.744 168.273 584.479H244.759C246.388 584.479 247.982 584.315 249.55 584H534.986C535.548 584 536 584.668 536 585.5Z" fill="#3F3D56"/>
<path d="M317.791 341.126C320.007 335.91 324.493 332.826 327.811 334.237C331.128 335.649 332.021 341.021 329.803 346.239C328.946 348.336 327.599 350.196 325.876 351.665L316.207 373.648L305.993 368.888L316.609 347.722C316.471 345.461 316.876 343.199 317.791 341.126Z" fill="#FFB6B6"/>
<path d="M253.21 379.022C265.825 379.022 276.051 368.791 276.051 356.169C276.051 343.548 265.825 333.316 253.21 333.316C240.596 333.316 230.369 343.548 230.369 356.169C230.369 368.791 240.596 379.022 253.21 379.022Z" fill="#FFB6B6"/>
<path d="M281.938 383.632L304.291 374.935L311.742 348.842L327.886 355.054L315.468 392.33L281.938 405.146V383.632Z" fill="#00AAEE"/>
<path d="M250.206 381.579L263.829 370.489C263.829 370.489 262.54 353.869 267.437 352.374C272.335 350.879 277.442 344.909 277.442 344.909C277.442 344.909 269.336 326.589 255.069 329.369C240.801 332.149 244.057 327.92 235.264 332.579C226.472 337.238 224.41 343.454 225.48 350.059C226.549 356.664 223.366 373.074 234.015 373.919C244.664 374.764 250.206 381.579 250.206 381.579Z" fill="#2F2E41"/>
<path d="M370.257 53.4565C367.668 48.7317 369.012 46.4763 366.676 44.6292C366.676 44.6292 365.736 43.8859 358.658 42.9393C357.982 31.3521 356.106 29.8035 356.106 29.8035C353.945 28.0188 350.505 28.2677 348.313 29.0783C343.677 30.7928 343.838 35.3097 340.759 35.9255C336.507 36.7762 348.101 29.5019 347.965 21.8071C347.855 15.5302 352.348 9.80167 353.913 10.2488C355.465 10.6922 359.626 6.17071 361.659 6.40808C363.048 6.57019 368.934 4.55088 370.449 4.86664C372.104 5.21151 377.385 8.52935 377.667 7.89031C379.627 3.44969 379.26 2.14472 380.718 0.946089C383.302 -1.17786 387.098 0.748505 393.187 2.10647C405.714 4.9005 408.259 0.897519 414.526 4.24957C417.691 5.94287 420.127 10.0218 424.871 18.1105C431.504 29.4226 434.821 35.0786 434.346 41.3283C433.862 47.702 430.81 47.051 428.702 56.3754C426.356 66.7551 429.177 71.8125 425.404 74.944C422.489 77.3643 398.313 77.5506 395.609 75.0058C390.979 70.6488 398.215 61.6067 393.3 54.1851C390.282 49.6294 383.678 47.1818 380.414 49.0536C376.723 51.17 378.089 58.3572 375.575 58.8275C373.422 59.2301 370.709 54.2798 370.257 53.4565Z" fill="#2F2E41"/>
<path d="M279.157 428.892C278.585 428.892 278.069 428.494 277.944 427.911L276.579 421.564C274.572 412.231 266.512 405.414 256.979 404.988C248.146 404.592 239.961 409.827 236.607 418.008L233.181 426.364C232.921 426.999 232.197 427.302 231.561 427.042C230.926 426.781 230.623 426.055 230.884 425.421L234.31 417.065C238.062 407.916 247.205 402.073 257.09 402.506C267.75 402.982 276.762 410.604 279.007 421.041L280.372 427.388C280.517 428.059 280.09 428.719 279.42 428.864C279.332 428.883 279.243 428.892 279.157 428.892Z" fill="#FFB6B6"/>
<path d="M280.623 449.1C280.587 449.1 280.549 449.098 280.512 449.095L234.557 444.995C233.875 444.934 233.37 444.331 233.431 443.647C233.493 442.964 234.089 442.462 234.778 442.52L280.732 446.62C281.415 446.681 281.92 447.284 281.859 447.968C281.801 448.614 281.26 449.1 280.623 449.1Z" fill="#FFB6B6"/>
</g>
<defs>
<clipPath id="clip0_743_610">
<rect width="562" height="587" fill="white"/>
</clipPath>
</defs>
</svg>
