<svg width="432" height="451" viewBox="0 0 432 451" fill="none" xmlns="http://www.w3.org/2000/svg">
<g clip-path="url(#clip0_3166_12758)">
<path d="M216.429 364.255C215.623 362.895 212.137 364.351 211.496 363.117C210.857 361.888 214.096 360.016 215.947 355.738C216.281 354.967 218.384 350.105 216.827 348.605C213.876 345.762 200.371 357.495 195.644 353.656C194.607 352.813 193.882 351.131 190.743 348.4C189.494 347.313 188.739 346.823 188.008 347.005C186.971 347.264 186.889 348.652 185.777 351.381C184.11 355.474 183.123 355.227 182.152 358.492C181.43 360.916 181.595 362.326 180.746 362.6C179.545 362.989 178.44 360.418 176.917 360.648C175.364 360.883 174.425 363.876 174.128 366.118C173.572 370.324 175.116 373.1 175.972 376.018C176.903 379.19 177.455 384.013 175.306 390.841L154.041 450.76C158.736 438.465 172.329 404.761 178.041 392.236C179.69 388.62 181.511 384.953 185.249 383.505C188.849 382.112 193.792 382.944 200.093 381.426C200.829 381.248 202.872 380.729 203.129 379.527C203.341 378.534 202.14 377.98 202.325 377.05C202.572 375.802 204.935 375.787 207.838 374.347C209.885 373.332 211.16 372.125 212.257 371.087C212.587 370.774 217.502 366.064 216.429 364.255Z" fill="#F2F2F2"/>
<path d="M132.765 395.798C131.865 395.802 131.573 397.933 130.783 397.892C129.995 397.851 130.011 395.72 128.446 393.577C128.164 393.191 126.385 390.756 125.199 391.088C122.952 391.716 124.814 401.73 121.566 402.942C120.853 403.208 119.818 403.078 117.572 403.831C116.679 404.131 116.22 404.36 116.099 404.771C115.927 405.355 116.584 405.796 117.603 407.129C119.13 409.128 118.724 409.541 120.046 410.96C121.028 412.014 121.767 412.34 121.657 412.835C121.501 413.537 119.92 413.338 119.594 414.151C119.261 414.982 120.459 416.306 121.474 417.099C123.378 418.585 125.185 418.628 126.865 419.05C128.69 419.508 131.216 420.629 133.948 423.654L157.219 451.38C152.539 445.528 139.92 429.131 135.421 422.714C134.122 420.861 132.848 418.909 133.216 416.657C133.571 414.488 135.405 412.302 136.478 408.771C136.604 408.358 136.938 407.206 136.423 406.733C135.996 406.342 135.378 406.772 134.975 406.413C134.434 405.931 135.108 404.768 135.239 402.927C135.331 401.63 135.107 400.655 134.914 399.817C134.856 399.565 133.962 395.794 132.765 395.798Z" fill="#F2F2F2"/>
<path d="M150.71 399.827L150.168 394.989L150.416 394.622C151.562 392.926 152.146 391.269 152.153 389.697C152.154 389.447 152.142 389.197 152.131 388.943C152.084 387.933 152.026 386.679 152.68 385.216C153.046 384.401 154.077 382.513 155.626 382.747C156.042 382.805 156.358 382.997 156.597 383.221C156.632 383.165 156.669 383.109 156.707 383.048C157.189 382.312 157.571 381.997 157.939 381.693C158.222 381.46 158.514 381.219 158.972 380.649C159.173 380.399 159.329 380.179 159.461 379.995C159.862 379.437 160.385 378.771 161.308 378.782C162.294 378.829 162.81 379.644 163.152 380.184C163.763 381.147 164.04 381.84 164.223 382.301C164.29 382.469 164.366 382.658 164.404 382.717C164.722 383.184 167.305 382.747 168.278 382.588C170.463 382.224 172.354 381.908 173.133 383.287C173.692 384.272 173.277 385.576 171.863 387.265C171.423 387.791 170.955 388.19 170.539 388.503C170.884 388.709 171.192 389.024 171.317 389.52C171.611 390.692 170.603 391.867 168.322 393.017C167.756 393.304 166.993 393.687 165.924 393.872C165.421 393.958 164.967 393.979 164.58 393.991C164.571 394.215 164.519 394.458 164.382 394.708C163.982 395.444 163.148 395.795 161.891 395.711C160.508 395.638 159.369 395.374 158.365 395.143C157.487 394.942 156.732 394.771 156.138 394.811C155.038 394.9 154.19 395.781 153.195 396.923L150.71 399.827Z" fill="#F2F2F2"/>
<path d="M153.224 371.02L148.682 372.772L148.264 372.625C146.333 371.947 144.583 371.802 143.06 372.194C142.818 372.256 142.58 372.331 142.336 372.407C141.372 372.708 140.173 373.083 138.593 372.821C137.711 372.673 135.624 372.155 135.457 370.598C135.408 370.18 135.513 369.826 135.669 369.537C135.606 369.518 135.543 369.497 135.474 369.475C134.64 369.195 134.238 368.906 133.851 368.627C133.553 368.412 133.247 368.191 132.579 367.893C132.286 367.762 132.034 367.666 131.822 367.585C131.181 367.339 130.404 367.002 130.181 366.106C129.976 365.141 130.634 364.435 131.069 363.967C131.845 363.132 132.446 362.688 132.845 362.394C132.99 362.287 133.154 362.165 133.201 362.113C133.572 361.687 132.495 359.3 132.094 358.399C131.187 356.377 130.403 354.628 131.538 353.525C132.35 352.735 133.716 352.805 135.709 353.744C136.329 354.036 136.834 354.388 137.242 354.711C137.354 354.326 137.58 353.947 138.028 353.701C139.088 353.119 140.48 353.796 142.17 355.711C142.592 356.186 143.156 356.827 143.606 357.814C143.817 358.279 143.952 358.712 144.062 359.084C144.281 359.035 144.529 359.024 144.806 359.093C145.619 359.294 146.169 360.012 146.407 361.249C146.688 362.605 146.721 363.774 146.752 364.804C146.78 365.703 146.807 366.478 146.996 367.042C147.361 368.084 148.428 368.68 149.785 369.353L153.224 371.02Z" fill="#F2F2F2"/>
<path d="M150.71 356.766L150.168 351.928L150.416 351.561C151.562 349.865 152.146 348.209 152.153 346.637C152.154 346.387 152.142 346.137 152.131 345.882C152.084 344.873 152.026 343.618 152.68 342.156C153.046 341.34 154.077 339.453 155.626 339.686C156.042 339.745 156.358 339.936 156.597 340.161C156.632 340.105 156.669 340.048 156.707 339.988C157.189 339.252 157.571 338.936 157.939 338.633C158.222 338.399 158.514 338.159 158.972 337.588C159.173 337.338 159.329 337.119 159.461 336.934C159.862 336.376 160.385 335.71 161.308 335.722C162.294 335.769 162.81 336.584 163.152 337.124C163.763 338.086 164.04 338.78 164.223 339.24C164.29 339.408 164.366 339.598 164.404 339.656C164.722 340.123 167.305 339.686 168.278 339.527C170.463 339.163 172.354 338.848 173.133 340.226C173.692 341.212 173.277 342.515 171.863 344.205C171.423 344.73 170.955 345.13 170.539 345.443C170.884 345.648 171.192 345.964 171.317 346.459C171.611 347.632 170.603 348.807 168.322 349.956C167.756 350.244 166.993 350.627 165.924 350.811C165.421 350.898 164.967 350.919 164.58 350.931C164.571 351.155 164.519 351.398 164.382 351.648C163.982 352.384 163.148 352.734 161.891 352.65C160.508 352.578 159.369 352.314 158.365 352.082C157.487 351.881 156.732 351.711 156.138 351.751C155.038 351.839 154.19 352.72 153.195 353.862L150.71 356.766Z" fill="#F2F2F2"/>
<path d="M155.661 450.682L154.647 450.047L153.465 450.182C153.446 450.072 153.382 449.82 153.285 449.425C152.756 447.262 151.143 440.678 149.797 430.31C148.858 423.073 148.326 415.632 148.217 408.191C148.107 400.739 148.46 395.097 148.742 390.562C148.956 387.142 149.215 383.885 149.47 380.713C150.147 372.237 150.786 364.231 150.311 355.367C150.206 353.389 149.985 349.27 147.579 344.887C146.183 342.345 144.261 340.089 141.864 338.182L143.354 336.309C146 338.416 148.127 340.916 149.677 343.738C152.345 348.597 152.585 353.085 152.701 355.241C153.184 364.261 152.538 372.345 151.854 380.902C151.602 384.063 151.342 387.306 151.13 390.712C150.849 395.204 150.5 400.797 150.609 408.154C150.716 415.506 151.242 422.856 152.168 430.002C153.497 440.239 155.087 446.725 155.609 448.855C155.887 449.993 155.946 450.231 155.661 450.682Z" fill="#F2F2F2"/>
<path d="M137.476 341.983C137.378 341.983 137.279 341.98 137.179 341.973C135.142 341.864 133.255 340.644 131.571 338.35C130.781 337.271 130.377 336.039 129.571 333.584C129.446 333.206 128.839 331.285 128.47 328.643C128.228 326.917 128.258 326.195 128.601 325.557C128.98 324.847 129.595 324.351 130.286 324.017C130.256 323.788 130.28 323.552 130.38 323.312C130.787 322.314 131.871 322.445 132.457 322.508C132.754 322.546 133.124 322.595 133.524 322.574C134.152 322.543 134.49 322.356 135.001 322.076C135.491 321.807 136.099 321.473 137.002 321.289C138.782 320.917 140.274 321.422 140.766 321.588C143.353 322.45 144.628 324.461 146.105 326.79C146.399 327.258 147.409 328.958 148.076 331.29C148.558 332.972 148.49 333.72 148.345 334.276C148.051 335.418 147.356 336.072 145.591 337.516C143.748 339.027 142.823 339.784 142.028 340.245C140.179 341.312 139.018 341.983 137.476 341.983Z" fill="#F2F2F2"/>
<path d="M207.575 445.882L213.839 445.881L216.819 421.717L207.574 421.717L207.575 445.882Z" fill="#CD9785"/>
<path d="M229.038 445.74C229.233 446.069 229.336 447.129 229.336 447.511C229.336 448.685 228.384 449.637 227.21 449.637H207.809C207.008 449.637 206.359 448.988 206.359 448.187V447.379C206.359 447.379 205.399 444.951 207.375 441.959C207.375 441.959 209.831 444.302 213.5 440.632L214.582 438.672L222.415 444.401L226.757 444.935C227.707 445.052 228.549 444.917 229.038 445.74Z" fill="#2F2E41"/>
<path d="M188.484 445.882L194.748 445.881L197.728 421.717L188.482 421.717L188.484 445.882Z" fill="#CD9785"/>
<path d="M209.946 445.74C210.141 446.069 210.244 447.129 210.244 447.511C210.244 448.685 209.292 449.637 208.118 449.637H188.718C187.917 449.637 187.268 448.988 187.268 448.187V447.379C187.268 447.379 186.308 444.951 188.284 441.959C188.284 441.959 190.74 444.302 194.409 440.632L195.491 438.672L203.324 444.401L207.666 444.935C208.616 445.052 209.458 444.917 209.946 445.74Z" fill="#2F2E41"/>
<path d="M214.812 341.527L221.494 367.405L218.153 433.857L202.402 434.912L201.448 396.658L199.538 436.037L183.311 432.661L182.356 346.028L214.812 341.527Z" fill="#2F2E41"/>
<path d="M152.982 358.101C150.783 361.859 150.939 366.038 153.333 367.436C155.726 368.834 159.448 366.921 161.648 363.162C162.548 361.672 163.077 359.989 163.192 358.253L172.312 342.212L164.689 338.098L156.508 354.348C155.05 355.299 153.841 356.586 152.982 358.101Z" fill="#B87660"/>
<path d="M180.443 293.275C180.443 293.275 195.436 294.838 194.367 301.703C193.297 308.568 165.8 358.953 165.8 358.953L154.354 351.859L180.443 293.275Z" fill="#00AAEE"/>
<path d="M184.265 295.705L195.72 278.521L207.175 283.295L204.311 298.569L184.265 295.705Z" fill="#B87660"/>
<path d="M185.22 291.886L205.266 290.932L218.631 294.75L221.494 365.394L181.402 361.575V324.322L175.674 305.251L185.22 291.886Z" fill="#00AAEE"/>
<path d="M218.303 339.538C217.599 337.484 217.318 335.314 217.5 333.15C218.013 327.042 218.11 315.075 211.884 309.668L208.368 305.859C208.295 305.779 208.213 305.712 208.138 305.634L213.956 291.958L210.441 290.464L205.042 303.157C202.647 301.7 199.884 300.893 197.027 300.893C193.726 300.893 190.571 301.969 187.965 303.864L184.671 291.798L180.987 292.804L185.105 306.564C184.955 306.747 184.792 306.915 184.65 307.105L182.638 309.805C182.148 310.463 181.608 311.074 181.022 311.647C179.787 312.856 177.378 315.793 177.355 320.314C177.347 321.86 177.029 323.389 176.558 324.862L174.167 332.335C173.942 333.037 173.766 333.751 173.646 334.478C172.592 340.877 168.943 371.024 193.884 370.421C217.135 369.858 218.665 355.7 218.53 350.997C218.5 349.977 218.592 348.965 218.782 347.962C219.131 346.122 219.445 342.868 218.303 339.538Z" fill="#3F3D56"/>
<path d="M323.34 34.3828L325.514 67.9543L298.174 74.228L300.078 47.0839L323.34 34.3828Z" fill="#CD9785"/>
<path d="M325.421 442.388L313.098 442.387L307.235 394.85L325.424 394.851L325.421 442.388Z" fill="#CD9785"/>
<path d="M283.199 442.109C282.815 442.755 282.613 444.841 282.613 445.593C282.613 447.903 284.485 449.776 286.795 449.776H324.96C326.536 449.776 327.814 448.498 327.814 446.922V445.333C327.814 445.333 329.702 440.557 325.815 434.671C325.815 434.671 320.984 439.28 313.765 432.061L311.636 428.204L296.227 439.474L287.686 440.526C285.817 440.756 284.16 440.49 283.199 442.109Z" fill="#2F2E41"/>
<path d="M358.832 442.388L346.508 442.387L340.646 394.85L358.834 394.851L358.832 442.388Z" fill="#CD9785"/>
<path d="M316.609 442.109C316.225 442.755 316.023 444.841 316.023 445.593C316.023 447.903 317.896 449.776 320.206 449.776H358.37C359.946 449.776 361.224 448.498 361.224 446.922V445.333C361.224 445.333 363.112 440.557 359.225 434.671C359.225 434.671 354.394 439.28 347.175 432.061L345.046 428.204L329.637 439.474L321.096 440.526C319.227 440.756 317.57 440.49 316.609 442.109Z" fill="#2F2E41"/>
<path d="M366.591 216.47C366.591 216.47 377.091 229.835 375.182 237.472C373.273 245.109 359.909 420.763 359.909 420.763L340.817 419.808L329.362 262.292L326.416 420.763L308.361 419.808L285.451 223.152L366.591 216.47Z" fill="#2F2E41"/>
<path d="M256.215 259.083C254.41 266.002 249.377 270.68 244.974 269.53C240.571 268.38 238.466 261.84 240.273 254.919C240.957 252.144 242.295 249.573 244.176 247.422L252.195 218.201L265.826 222.257L256.474 250.632C257.064 253.43 256.975 256.327 256.215 259.083Z" fill="#CD9785"/>
<path d="M301.131 62.2424C316.196 62.2424 328.408 50.0296 328.408 34.9645C328.408 19.8993 316.196 7.68652 301.131 7.68652C286.067 7.68652 273.855 19.8993 273.855 34.9645C273.855 50.0296 286.067 62.2424 301.131 62.2424Z" fill="#CD9785"/>
<path d="M297.861 69.4544L326.498 63.7266L358 79.9554L364.682 184.011L373.273 223.151L284.497 224.106L288.315 171.601L282.587 88.5472L297.861 69.4544Z" fill="#E6E6E6"/>
<path d="M291.179 91.4121C291.179 91.4121 275.906 86.6389 270.178 95.2306C264.451 103.822 253.95 181.148 253.95 181.148L243.45 239.381L262.541 242.245L294.043 140.099L291.179 91.4121Z" fill="#E6E6E6"/>
<path d="M430.102 225.615C433.214 232.054 432.415 238.878 428.318 240.858C424.22 242.838 418.378 239.224 415.265 232.783C413.987 230.227 413.339 227.402 413.376 224.545L400.535 197.099L413.542 191.348L424.82 219.014C427.083 220.761 428.894 223.025 430.102 225.615Z" fill="#CD9785"/>
<path d="M346.044 80.945C346.044 80.945 359.761 72.7033 367.353 79.7015C374.946 86.6996 403.39 159.366 403.39 159.366L427.33 213.478L409.453 220.765L354.746 128.933L346.044 80.945Z" fill="#E6E6E6"/>
<path d="M412.014 449.848C412.014 450.487 411.667 451 411.234 451H129.918C129.486 451 129.139 450.487 129.139 449.848C129.139 449.538 129.217 449.267 129.348 449.063H188.142C189.394 449.063 190.619 448.937 191.825 448.695H411.234C411.667 448.695 412.014 449.209 412.014 449.848Z" fill="#3F3D56"/>
<path d="M244.281 262.092C245.984 258.084 249.433 255.714 251.983 256.799C254.533 257.884 255.219 262.011 253.514 266.02C252.855 267.631 251.82 269.06 250.495 270.189L243.063 287.079L235.212 283.422L243.373 267.16C243.266 265.422 243.577 263.684 244.281 262.092Z" fill="#CD9785"/>
<path d="M194.639 291.208C204.335 291.208 212.196 283.347 212.196 273.649C212.196 263.952 204.335 256.091 194.639 256.091C184.942 256.091 177.081 263.952 177.081 273.649C177.081 283.347 184.942 291.208 194.639 291.208Z" fill="#B87660"/>
<path d="M216.721 294.75L233.904 288.068L239.631 268.021L252.041 272.794L242.495 301.433L216.721 311.28V294.75Z" fill="#00AAEE"/>
<path d="M192.33 293.172L202.801 284.652C202.801 284.652 201.81 271.882 205.575 270.734C209.339 269.585 213.265 264.998 213.265 264.998C213.265 264.998 207.034 250.923 196.067 253.059C185.1 255.194 187.603 251.945 180.844 255.525C174.085 259.104 172.5 263.88 173.323 268.955C174.145 274.03 171.698 286.638 179.884 287.287C188.069 287.936 192.33 293.172 192.33 293.172Z" fill="#2F2E41"/>
<path d="M284.611 41.0713C282.62 37.4412 283.654 35.7083 281.858 34.2892C281.858 34.2892 281.135 33.7182 275.694 32.9908C275.175 24.0883 273.733 22.8985 273.733 22.8985C272.071 21.5272 269.427 21.7184 267.742 22.3412C264.179 23.6585 264.302 27.1289 261.936 27.6021C258.667 28.2557 267.579 22.6667 267.475 16.7547C267.39 11.9321 270.844 7.53076 272.047 7.8743C273.24 8.21495 276.439 4.74104 278.001 4.92342C279.069 5.04797 283.593 3.4965 284.758 3.73911C286.03 4.00408 290.089 6.55322 290.306 6.06223C291.813 2.65045 291.53 1.64782 292.651 0.726893C294.638 -0.904969 297.556 0.575086 302.236 1.61843C311.866 3.76512 313.822 0.689576 318.639 3.265C321.072 4.56599 322.945 7.69989 326.591 13.9146C331.69 22.6058 334.239 26.9513 333.874 31.7531C333.502 36.6501 331.157 36.1499 329.536 43.314C327.733 51.2888 329.901 55.1745 327.001 57.5805C324.76 59.44 306.176 59.5832 304.098 57.6279C300.539 54.2804 306.101 47.3333 302.323 41.6312C300.003 38.131 294.927 36.2504 292.418 37.6885C289.58 39.3146 290.631 44.8367 288.698 45.1979C287.043 45.5073 284.957 41.7039 284.611 41.0713Z" fill="#2F2E41"/>
<path d="M214.583 329.523C214.143 329.523 213.747 329.217 213.651 328.77L212.601 323.893C211.059 316.722 204.863 311.485 197.535 311.158C190.746 310.854 184.454 314.875 181.876 321.161L179.242 327.581C179.043 328.069 178.486 328.302 177.997 328.102C177.509 327.902 177.276 327.344 177.477 326.857L180.11 320.436C182.994 313.408 190.022 308.918 197.621 309.251C205.815 309.617 212.742 315.473 214.468 323.492L215.517 328.368C215.628 328.883 215.3 329.391 214.786 329.502C214.718 329.516 214.65 329.523 214.583 329.523Z" fill="#CD9785"/>
<path d="M215.711 345.049C215.683 345.049 215.654 345.048 215.625 345.046L180.3 341.896C179.776 341.848 179.388 341.385 179.434 340.86C179.482 340.335 179.941 339.949 180.47 339.994L215.794 343.144C216.319 343.191 216.707 343.654 216.66 344.18C216.616 344.676 216.2 345.049 215.711 345.049Z" fill="#CD9785"/>
</g>
<defs>
<clipPath id="clip0_3166_12758">
<rect width="432" height="451" fill="white"/>
</clipPath>
</defs>
</svg>
