<svg width="383" height="274" viewBox="0 0 383 274" fill="none" xmlns="http://www.w3.org/2000/svg">
<rect y="32.0615" width="383" height="241.938" rx="20" fill="#D1EEFC"/>
<path d="M0 52.0615C0 41.0158 8.95431 32.0615 20 32.0615H363C374.046 32.0615 383 41.0158 383 52.0615V94.661H0V52.0615Z" fill="#156DBF"/>
<rect y="85.3555" width="383" height="13.535" fill="#A7D4FF"/>
<rect x="176.328" y="0.761719" width="34.4454" height="60.0616" fill="#989898"/>
<rect x="174.688" y="2.45312" width="34.4454" height="58.3698" fill="#D9D9D9"/>
<rect x="170.586" y="58.2852" width="41.8265" height="9.30532" rx="4.65266" fill="white"/>
<path d="M196.58 15.5657C196.58 18.0046 194.665 19.9684 192.319 19.9684C189.973 19.9684 188.059 18.0046 188.059 15.5657C188.059 13.1269 189.973 11.1631 192.319 11.1631C194.665 11.1631 196.58 13.1269 196.58 15.5657Z" fill="white" stroke="#989898" stroke-width="0.5"/>
</svg>
