<svg width="159" height="31" viewBox="0 0 159 31" fill="none" xmlns="http://www.w3.org/2000/svg">
<rect width="159" height="31" rx="15.5" fill="#FF5522" fill-opacity="0.2"/>
<circle cx="24.5" cy="15.5" r="7.5" fill="#FF3A3A"/>
<path d="M40.746 22H42.096V10.48L49.008 22H50.124V8.986H48.774V19.138L42.798 8.986H40.746V22ZM52.4792 17.284C52.4792 20.416 53.9552 22.162 56.4032 22.162C58.8512 22.162 60.3272 20.416 60.3272 17.284C60.3272 14.152 58.8512 12.424 56.4032 12.424C53.9552 12.424 52.4792 14.152 52.4792 17.284ZM53.8112 17.284C53.8112 14.818 54.7472 13.54 56.4032 13.54C58.0592 13.54 58.9772 14.818 58.9772 17.302C58.9772 19.768 58.0412 21.064 56.4032 21.064C54.7472 21.064 53.8112 19.768 53.8112 17.284ZM66.1219 20.866C65.8339 20.938 65.5639 21.01 65.2039 21.01C64.1059 21.01 63.9619 20.686 63.9619 19.732V13.702H66.1039V12.586H63.9619V9.544H62.5939V12.586H61.1899V13.702H62.5939V20.326C62.5939 21.55 63.3139 22.162 64.7359 22.162C65.2579 22.162 65.7079 22.108 66.1219 21.964V20.866ZM72.1419 22H73.6719L74.8239 17.95H79.6659L80.8359 22H82.3479L78.3519 8.986H76.1559L72.1419 22ZM75.1659 16.744L77.1279 9.958H77.3259L79.2699 16.744H75.1659ZM84.1401 25.42H85.4361V20.992C86.0301 21.784 86.8041 22.162 87.8661 22.162C90.3861 22.162 91.7901 20.47 91.7901 17.338C91.7901 14.17 90.3501 12.424 87.8841 12.424C86.7501 12.424 86.0301 12.892 85.3641 13.738L85.1481 12.586H84.1401V25.42ZM85.4361 19.642V14.944C86.0301 14.008 86.8581 13.54 87.8121 13.54C89.5581 13.54 90.4401 14.818 90.4401 17.356C90.4401 19.786 89.5221 21.082 87.9561 21.082C86.9121 21.082 86.1381 20.632 85.4361 19.642ZM93.8783 25.42H95.1743V20.992C95.7683 21.784 96.5423 22.162 97.6043 22.162C100.124 22.162 101.528 20.47 101.528 17.338C101.528 14.17 100.088 12.424 97.6223 12.424C96.4883 12.424 95.7683 12.892 95.1023 13.738L94.8863 12.586H93.8783V25.42ZM95.1743 19.642V14.944C95.7683 14.008 96.5963 13.54 97.5503 13.54C99.2963 13.54 100.178 14.818 100.178 17.356C100.178 19.786 99.2603 21.082 97.6943 21.082C96.6503 21.082 95.8763 20.632 95.1743 19.642ZM103.617 22H104.949V16.762C105.525 14.818 106.533 13.792 107.811 13.792H107.973V12.496C107.865 12.478 107.775 12.478 107.667 12.478C106.425 12.478 105.579 13.216 104.949 14.728V12.586H103.617V22ZM108.589 17.284C108.589 20.416 110.065 22.162 112.513 22.162C114.961 22.162 116.437 20.416 116.437 17.284C116.437 14.152 114.961 12.424 112.513 12.424C110.065 12.424 108.589 14.152 108.589 17.284ZM109.921 17.284C109.921 14.818 110.857 13.54 112.513 13.54C114.169 13.54 115.087 14.818 115.087 17.302C115.087 19.768 114.151 21.064 112.513 21.064C110.857 21.064 109.921 19.768 109.921 17.284ZM120.287 22H121.979L125.057 12.586H123.725L121.133 20.65L118.541 12.586H117.209L120.287 22ZM132.545 19.354C131.987 20.452 131.033 21.046 129.863 21.046C128.351 21.046 127.307 19.858 127.307 17.86V17.554H133.301V17.158C133.301 14.116 131.915 12.424 129.629 12.424C127.397 12.424 125.957 14.188 125.957 17.284C125.957 20.488 127.307 22.162 129.737 22.162C131.537 22.162 132.761 21.46 133.499 19.948L132.545 19.354ZM127.325 16.438C127.397 14.566 128.261 13.54 129.647 13.54C130.979 13.54 131.879 14.584 131.915 16.438H127.325ZM142.147 8.986H140.851V13.666C140.329 12.838 139.519 12.424 138.403 12.424C136.009 12.424 134.623 14.134 134.623 17.248C134.623 20.38 136.027 22.144 138.331 22.144C139.483 22.144 140.257 21.748 140.959 20.812L141.265 22H142.273C142.147 21.01 142.147 20.038 142.147 19.066V8.986ZM140.851 14.944V19.642C140.275 20.578 139.483 21.046 138.547 21.046C136.819 21.046 135.973 19.75 135.973 17.158C135.973 14.782 136.909 13.504 138.403 13.504C139.411 13.504 140.185 13.972 140.851 14.944Z" fill="#3F3F3F"/>
</svg>
