<svg width="124" height="31" viewBox="0 0 124 31" fill="none" xmlns="http://www.w3.org/2000/svg">
<rect width="124" height="31" rx="15.5" fill="#09AD06" fill-opacity="0.2"/>
<circle cx="24.5" cy="15.5" r="7.5" fill="#00E632"/>
<path d="M54.422 18.094L53.108 17.806C52.748 19.858 51.578 20.974 49.886 20.974C47.636 20.974 46.286 19.066 46.286 15.538C46.286 11.92 47.618 9.994 49.85 9.994C51.38 9.994 52.46 11.038 52.856 13L54.206 12.658C53.648 10.084 52.136 8.77 49.724 8.77C46.772 8.77 44.828 11.2 44.828 15.484C44.828 19.822 46.664 22.216 49.832 22.216C52.262 22.216 53.792 20.848 54.422 18.094ZM56.4293 22H57.7433V8.986H56.4293V22ZM66.6001 19.354C66.0421 20.452 65.0881 21.046 63.9181 21.046C62.4061 21.046 61.3621 19.858 61.3621 17.86V17.554H67.3561V17.158C67.3561 14.116 65.9701 12.424 63.6841 12.424C61.4521 12.424 60.0121 14.188 60.0121 17.284C60.0121 20.488 61.3621 22.162 63.7921 22.162C65.5921 22.162 66.8161 21.46 67.5541 19.948L66.6001 19.354ZM61.3801 16.438C61.4521 14.566 62.3161 13.54 63.7021 13.54C65.0341 13.54 65.9341 14.584 65.9701 16.438H61.3801ZM74.3301 20.722L74.4741 22H75.9141V21.856C75.7881 21.442 75.7161 20.974 75.7161 20.47V15.214C75.7161 13.432 74.5461 12.424 72.5661 12.424C70.9461 12.424 69.7581 13.09 69.0561 14.422L70.1901 15.034C70.6761 14.062 71.4861 13.558 72.4941 13.558C73.6281 13.558 74.3841 14.188 74.3841 15.034V15.718C70.5501 16.456 68.7501 17.482 68.7501 19.552C68.7501 21.082 69.8121 22.144 71.3421 22.144C72.4761 22.144 73.4661 21.658 74.3301 20.722ZM74.3841 19.534C73.3041 20.488 72.4041 20.974 71.5761 20.974C70.6221 20.974 70.0461 20.416 70.0461 19.57C70.0461 18.238 71.4501 17.536 74.3841 16.942V19.534ZM78.558 22H79.89V16.762C80.466 14.818 81.474 13.792 82.752 13.792H82.914V12.496C82.806 12.478 82.716 12.478 82.608 12.478C81.366 12.478 80.52 13.216 79.89 14.728V12.586H78.558V22ZM90.19 19.354C89.632 20.452 88.678 21.046 87.508 21.046C85.996 21.046 84.952 19.858 84.952 17.86V17.554H90.946V17.158C90.946 14.116 89.56 12.424 87.274 12.424C85.042 12.424 83.602 14.188 83.602 17.284C83.602 20.488 84.952 22.162 87.382 22.162C89.182 22.162 90.406 21.46 91.144 19.948L90.19 19.354ZM84.97 16.438C85.042 14.566 85.906 13.54 87.292 13.54C88.624 13.54 89.524 14.584 89.56 16.438H84.97ZM99.792 8.986H98.496V13.666C97.974 12.838 97.164 12.424 96.048 12.424C93.654 12.424 92.268 14.134 92.268 17.248C92.268 20.38 93.672 22.144 95.976 22.144C97.128 22.144 97.902 21.748 98.604 20.812L98.91 22H99.918C99.792 21.01 99.792 20.038 99.792 19.066V8.986ZM98.496 14.944V19.642C97.92 20.578 97.128 21.046 96.192 21.046C94.464 21.046 93.618 19.75 93.618 17.158C93.618 14.782 94.554 13.504 96.048 13.504C97.056 13.504 97.83 13.972 98.496 14.944Z" fill="#3F3F3F"/>
</svg>
