<svg width="19" height="19" viewBox="0 0 19 19" fill="none" xmlns="http://www.w3.org/2000/svg">
<path d="M17.7777 5.06198L13.938 1.22143C13.7784 1.06176 13.5889 0.935091 13.3803 0.848672C13.1717 0.762253 12.9482 0.717773 12.7224 0.717773C12.4966 0.717773 12.2731 0.762253 12.0645 0.848672C11.8559 0.935091 11.6664 1.06176 11.5068 1.22143L0.909851 11.8192C0.749665 11.9784 0.622667 12.1677 0.53622 12.3763C0.449773 12.5849 0.405598 12.8086 0.406257 13.0344V16.8749C0.406257 17.3308 0.587339 17.768 0.909667 18.0903C1.232 18.4126 1.66917 18.5937 2.12501 18.5937H5.96555C6.19134 18.5943 6.41501 18.5501 6.6236 18.4637C6.83218 18.3772 7.02154 18.2502 7.18071 18.0901L17.7777 7.49229C18.0999 7.16998 18.2809 6.73288 18.2809 6.27713C18.2809 5.82138 18.0999 5.38429 17.7777 5.06198ZM5.82032 16.5312H2.46876V13.1796L9.68751 5.96088L13.0391 9.31245L5.82032 16.5312ZM14.5 7.85151L11.1484 4.49995L12.7245 2.92385L16.0761 6.27541L14.5 7.85151Z" fill="#156DBF"/>
</svg>
