<svg width="23" height="23" viewBox="0 0 23 23" fill="none" xmlns="http://www.w3.org/2000/svg">
<rect width="23" height="23" rx="5" fill="#FFB6B6"/>
<path d="M5.816 14.056H6.816C7.552 14.056 7.92 14.32 7.92 14.832C7.92 15.336 7.464 15.68 6.784 15.68H5.816V14.056ZM4.632 13.024V19H5.824V16.656H6.864C8.272 16.656 9.144 15.936 9.144 14.776C9.144 14.256 9.008 13.896 8.68 13.584C8.24 13.16 7.712 13.024 6.528 13.024H4.632ZM11.1181 14.032H11.6941C12.7821 14.032 13.4861 14.8 13.4861 15.976C13.4861 16.584 13.2701 17.184 12.9101 17.56C12.6621 17.816 12.3181 17.952 11.9341 17.952H11.1181V14.032ZM9.92606 13.024V19H11.9101C12.7261 19 13.4221 18.744 13.8941 18.272C14.4141 17.76 14.7261 16.88 14.7261 15.952C14.7261 14.224 13.6541 13.024 12.1021 13.024H9.92606ZM16.0102 13.016V19H17.1942V16.648H18.6262V15.616H17.1862V14.056H19.6742V13.016H16.0102Z" fill="#FF2222" fill-opacity="0.6"/>
</svg>
