<svg width="41" height="49" viewBox="0 0 41 49" fill="none" xmlns="http://www.w3.org/2000/svg">
<rect width="48.7958" height="40.8975" rx="5" transform="matrix(0.00211061 -0.999998 0.999988 0.0049947 0 48.7959)" fill="#66AAAA"/>
<path d="M18.0835 25.7085C18.6024 26.4022 19.2645 26.9762 20.0247 27.3916C20.785 27.807 21.6257 28.054 22.4899 28.1159C23.354 28.1777 24.2213 28.0531 25.033 27.7503C25.8447 27.4475 26.5818 26.9737 27.1943 26.361L30.8193 22.736C31.9199 21.5965 32.5288 20.0703 32.5151 18.4862C32.5013 16.9021 31.8659 15.3868 30.7457 14.2666C29.6256 13.1465 28.1102 12.5111 26.5261 12.4973C24.942 12.4835 23.4159 13.0925 22.2764 14.193L20.1981 16.2593" stroke="white" stroke-width="2" stroke-linecap="round" stroke-linejoin="round"/>
<path d="M22.9167 23.292C22.3977 22.5982 21.7357 22.0242 20.9754 21.6088C20.2151 21.1935 19.3744 20.9465 18.5103 20.8846C17.6462 20.8227 16.7788 20.9474 15.9671 21.2502C15.1554 21.553 14.4183 22.0268 13.8058 22.6395L10.1808 26.2645C9.08029 27.404 8.47133 28.9301 8.48509 30.5142C8.49886 32.0983 9.13425 33.6136 10.2544 34.7338C11.3746 35.854 12.8899 36.4894 14.474 36.5031C16.0581 36.5169 17.5843 35.9079 18.7237 34.8074L20.79 32.7411" stroke="white" stroke-width="2" stroke-linecap="round" stroke-linejoin="round"/>
</svg>
