<svg width="24" height="24" viewBox="0 0 24 24" fill="none" xmlns="http://www.w3.org/2000/svg">
<g id="heart">
<path id="Vector" d="M20.42 4.58045C19.9183 4.07702 19.3222 3.67758 18.6658 3.40503C18.0094 3.13248 17.3057 2.99219 16.595 2.99219C15.8843 2.99219 15.1806 3.13248 14.5242 3.40503C13.8678 3.67758 13.2717 4.07702 12.77 4.58045L12 5.36045L11.23 4.58045C10.7283 4.07702 10.1322 3.67758 9.47582 3.40503C8.81944 3.13248 8.11572 2.99219 7.405 2.99219C6.69429 2.99219 5.99056 3.13248 5.33418 3.40503C4.6778 3.67758 4.08168 4.07702 3.58 4.58045C1.46 6.70045 1.33 10.2804 4 13.0004L12 21.0004L20 13.0004C22.67 10.2804 22.54 6.70045 20.42 4.58045Z" fill="#FF0000" stroke="#FF0000" stroke-width="2" stroke-linecap="round" stroke-linejoin="round"/>
</g>
</svg>
