<svg width="80" height="72" viewBox="0 0 80 72" fill="none" xmlns="http://www.w3.org/2000/svg">
<g clip-path="url(#clip0_1760_4809)">
<path d="M40.9688 0.157151L38.3657 0.830301L6.29553 9.12366L3.69247 9.79681C2.42898 10.1251 1.34693 10.9425 0.683706 12.0698C0.0204866 13.1971 -0.169737 14.5422 0.154769 15.8099L11.4422 59.7023C11.7696 60.9693 12.5847 62.0544 13.7089 62.7195C14.833 63.3845 16.1743 63.5753 17.4386 63.2499L17.4453 63.2482L54.7082 53.612L54.7149 53.6102C55.9784 53.282 57.0604 52.4645 57.7237 51.3372C58.3869 50.2099 58.5771 48.8649 58.2526 47.5971L46.9652 3.70475C46.6378 2.43773 45.8227 1.35265 44.6985 0.687576C43.5744 0.0225007 42.233 -0.168258 40.9688 0.157151Z" fill="#00AAEE"/>
<path d="M41.3239 1.53336L38.2407 2.33066L7.13058 10.3758L4.04748 11.173C3.14771 11.4068 2.37715 11.9889 1.90486 12.7917C1.43256 13.5945 1.29709 14.5523 1.52818 15.4551L12.8156 59.3475C13.0487 60.2498 13.6292 61.0225 14.4298 61.4961C15.2303 61.9697 16.1855 62.1055 17.0858 61.8738L17.0925 61.8721L54.3554 52.2359L54.3622 52.2341C55.2619 52.0004 56.0325 51.4182 56.5047 50.6155C56.977 49.8127 57.1125 48.8549 56.8814 47.9521L45.594 4.0597C45.3609 3.15743 44.7804 2.38472 43.9798 1.91111C43.1793 1.43749 42.2241 1.30164 41.3239 1.53336Z" fill="white"/>
<path d="M38.996 15.7469L20.1456 20.6216C19.9351 20.676 19.7116 20.6444 19.5243 20.5336C19.3371 20.4228 19.2014 20.242 19.1471 20.0308C19.0928 19.8197 19.1243 19.5956 19.2348 19.4078C19.3453 19.22 19.5257 19.0839 19.7362 19.0295L38.5866 14.1548C38.797 14.1005 39.0204 14.1323 39.2075 14.2431C39.3946 14.3539 39.5302 14.5347 39.5844 14.7457C39.6387 14.9567 39.6072 15.1807 39.4969 15.3684C39.3865 15.5562 39.2064 15.6923 38.996 15.7469Z" fill="#CCCCCC"/>
<path d="M42.962 17.5869L20.837 23.3084C20.6265 23.3629 20.403 23.3312 20.2157 23.2204C20.0285 23.1096 19.8928 22.9288 19.8385 22.7177C19.7842 22.5065 19.8157 22.2824 19.9262 22.0946C20.0367 21.9068 20.2171 21.7708 20.4276 21.7163L42.5526 15.9948C42.7631 15.9404 42.9866 15.972 43.1739 16.0828C43.3611 16.1936 43.4968 16.3744 43.5511 16.5856C43.6054 16.7967 43.5739 17.0208 43.4634 17.2086C43.3529 17.3964 43.1726 17.5325 42.962 17.5869Z" fill="#CCCCCC"/>
<path d="M42.0937 27.7871L23.2433 32.6618C23.139 32.6888 23.0305 32.6949 22.9239 32.6798C22.8173 32.6647 22.7147 32.6287 22.622 32.5738C22.5293 32.519 22.4482 32.4463 22.3835 32.3601C22.3188 32.2738 22.2716 32.1756 22.2447 32.071C22.2178 31.9665 22.2118 31.8577 22.2268 31.7508C22.2419 31.6439 22.2778 31.541 22.3325 31.448C22.3872 31.355 22.4596 31.2738 22.5456 31.2089C22.6317 31.1439 22.7296 31.0967 22.8338 31.0697L41.6842 26.195C41.7885 26.168 41.897 26.1619 42.0036 26.177C42.1102 26.1921 42.2128 26.2281 42.3055 26.283C42.3982 26.3378 42.4793 26.4105 42.544 26.4967C42.6088 26.583 42.6559 26.6812 42.6828 26.7858C42.7097 26.8903 42.7158 26.9991 42.7007 27.106C42.6856 27.2129 42.6497 27.3158 42.595 27.4088C42.5403 27.5018 42.4679 27.583 42.3819 27.6479C42.2958 27.7129 42.1979 27.7601 42.0937 27.7871Z" fill="#F2F2F2"/>
<path d="M46.0597 29.627L23.9347 35.3485C23.8304 35.3754 23.7219 35.3815 23.6153 35.3664C23.5087 35.3513 23.4061 35.3153 23.3134 35.2605C23.2207 35.2056 23.1396 35.133 23.0749 35.0467C23.0102 34.9604 22.963 34.8622 22.9361 34.7577C22.9092 34.6532 22.9032 34.5443 22.9182 34.4374C22.9333 34.3305 22.9692 34.2277 23.0239 34.1347C23.0786 34.0417 23.151 33.9604 23.237 33.8955C23.3231 33.8306 23.421 33.7833 23.5252 33.7564L45.6502 28.0348C45.8608 27.9804 46.0843 28.012 46.2715 28.1228C46.4588 28.2336 46.5945 28.4145 46.6488 28.6256C46.7031 28.8367 46.6715 29.0608 46.561 29.2486C46.4506 29.4364 46.2702 29.5725 46.0597 29.627Z" fill="#F2F2F2"/>
<path d="M45.1908 39.8271L26.3404 44.7019C26.1299 44.7561 25.9065 44.7244 25.7194 44.6136C25.5323 44.5028 25.3966 44.322 25.3424 44.1109C25.2881 43.8999 25.3196 43.6759 25.43 43.4882C25.5404 43.3004 25.7205 43.1643 25.931 43.1097L44.7813 38.235C44.9919 38.1806 45.2154 38.2122 45.4026 38.323C45.5899 38.4338 45.7256 38.6147 45.7799 38.8258C45.8342 39.0369 45.8026 39.261 45.6921 39.4488C45.5817 39.6366 45.4013 39.7727 45.1908 39.8271Z" fill="#F2F2F2"/>
<path d="M49.1541 41.667L27.0291 47.3885C26.9249 47.4156 26.8163 47.4218 26.7096 47.4067C26.6029 47.3917 26.5003 47.3557 26.4075 47.3009C26.3147 47.246 26.2335 47.1734 26.1688 47.0871C26.104 47.0008 26.0568 46.9025 26.0299 46.7979C26.003 46.6933 25.9969 46.5844 26.012 46.4775C26.0271 46.3705 26.063 46.2676 26.1178 46.1746C26.1726 46.0816 26.2451 46.0003 26.3312 45.9354C26.4173 45.8705 26.5154 45.8233 26.6197 45.7964L48.7447 40.0749C48.9552 40.0204 49.1787 40.0521 49.366 40.1629C49.5533 40.2737 49.689 40.4545 49.7433 40.6656C49.7975 40.8768 49.766 41.1009 49.6555 41.2887C49.545 41.4765 49.3647 41.6125 49.1541 41.667Z" fill="#F2F2F2"/>
<path d="M16.9278 25.6192L10.2569 27.3443C10.1559 27.3703 10.0488 27.355 9.95904 27.3019C9.86928 27.2488 9.80419 27.1622 9.77805 27.061L8.24674 21.1063C8.22082 21.0051 8.23601 20.8977 8.28897 20.8077C8.34193 20.7177 8.42833 20.6524 8.52922 20.6262L15.2002 18.9011C15.3011 18.8751 15.4082 18.8903 15.498 18.9434C15.5878 18.9965 15.6529 19.0832 15.679 19.1843L17.2103 25.139C17.2362 25.2402 17.221 25.3477 17.1681 25.4377C17.1151 25.5277 17.0287 25.593 16.9278 25.6192Z" fill="#CCCCCC"/>
<path d="M20.0255 37.6602L13.3545 39.3853C13.2536 39.4113 13.1465 39.396 13.0567 39.3429C12.9669 39.2898 12.9018 39.2032 12.8757 39.102L11.3444 33.1473C11.3185 33.0461 11.3337 32.9387 11.3866 32.8487C11.4396 32.7587 11.526 32.6934 11.6269 32.6672L18.2978 30.9421C18.3988 30.9161 18.5059 30.9313 18.5957 30.9844C18.6854 31.0375 18.7505 31.1242 18.7767 31.2254L20.308 37.18C20.3339 37.2813 20.3187 37.3887 20.2657 37.4787C20.2128 37.5687 20.1264 37.634 20.0255 37.6602Z" fill="#CCCCCC"/>
<path d="M23.1192 49.7002L16.4483 51.4253C16.3473 51.4513 16.2402 51.4361 16.1504 51.383C16.0607 51.3299 15.9956 51.2432 15.9695 51.1421L14.4381 45.1874C14.4122 45.0862 14.4274 44.9787 14.4804 44.8887C14.5333 44.7987 14.6197 44.7334 14.7206 44.7072L21.3916 42.9821C21.4926 42.9561 21.5997 42.9714 21.6894 43.0245C21.7792 43.0776 21.8443 43.1642 21.8704 43.2654L23.4017 49.2201C23.4276 49.3213 23.4124 49.4287 23.3595 49.5187C23.3065 49.6087 23.2201 49.674 23.1192 49.7002Z" fill="#CCCCCC"/>
<path d="M66.9696 11.2832H28.4738C27.1686 11.2847 25.9172 11.8053 24.9943 12.7308C24.0714 13.6563 23.5522 14.9111 23.5508 16.22V61.5483C23.5522 62.8572 24.0714 64.112 24.9943 65.0375C25.9172 65.963 27.1686 66.4836 28.4738 66.485H66.9696C68.2748 66.4836 69.5262 65.963 70.4491 65.0375C71.372 64.112 71.8912 62.8572 71.8926 61.5483V16.22C71.8912 14.9111 71.372 13.6563 70.4491 12.7308C69.5262 11.8053 68.2748 11.2847 66.9696 11.2832Z" fill="#156DBF"/>
<path d="M66.9704 12.7041H28.4745C27.5451 12.7051 26.654 13.0759 25.9967 13.7349C25.3395 14.394 24.9698 15.2876 24.9688 16.2197V61.548C24.9698 62.4801 25.3395 63.3737 25.9967 64.0327C26.654 64.6918 27.5451 65.0625 28.4745 65.0636H66.9704C67.8999 65.0625 68.791 64.6918 69.4482 64.0327C70.1055 63.3737 70.4751 62.4801 70.4762 61.548V16.2197C70.4751 15.2876 70.1055 14.394 69.4482 13.735C68.791 13.0759 67.8999 12.7052 66.9704 12.7041Z" fill="white"/>
<path d="M71.0141 72.0002C75.9773 72.0002 80.0008 67.9655 80.0008 62.9884C80.0008 58.0113 75.9773 53.9766 71.0141 53.9766C66.0508 53.9766 62.0273 58.0113 62.0273 62.9884C62.0273 67.9655 66.0508 72.0002 71.0141 72.0002Z" fill="#156DBF"/>
<path d="M75.3112 61.8129H72.1853V58.6784C72.1853 58.3666 72.0618 58.0677 71.842 57.8472C71.6222 57.6268 71.324 57.5029 71.0132 57.5029C70.7023 57.5029 70.4041 57.6268 70.1843 57.8472C69.9645 58.0677 69.841 58.3666 69.841 58.6784V61.8129H66.7152C66.4043 61.8129 66.1061 61.9368 65.8863 62.1572C65.6665 62.3777 65.543 62.6766 65.543 62.9884C65.543 63.3001 65.6665 63.5991 65.8863 63.8196C66.1061 64.04 66.4043 64.1638 66.7152 64.1638H69.841V67.2984C69.841 67.6101 69.9645 67.9091 70.1843 68.1296C70.4041 68.35 70.7023 68.4739 71.0132 68.4739C71.324 68.4739 71.6222 68.35 71.842 68.1296C72.0618 67.9091 72.1853 67.6101 72.1853 67.2984V64.1638H75.3112C75.622 64.1638 75.9202 64.04 76.14 63.8196C76.3599 63.5991 76.4834 63.3001 76.4834 62.9884C76.4834 62.6766 76.3599 62.3777 76.14 62.1572C75.9202 61.9368 75.622 61.8129 75.3112 61.8129Z" fill="white"/>
<path d="M61.1745 37.612H41.7074C41.5997 37.6121 41.493 37.5909 41.3934 37.5497C41.2939 37.5084 41.2034 37.4479 41.1272 37.3715C41.0509 37.2952 40.9905 37.2045 40.9492 37.1047C40.908 37.0049 40.8867 36.8979 40.8867 36.7899C40.8867 36.6818 40.908 36.5749 40.9492 36.4751C40.9905 36.3753 41.0509 36.2846 41.1272 36.2082C41.2034 36.1319 41.2939 36.0713 41.3934 36.0301C41.493 35.9888 41.5997 35.9677 41.7074 35.9678H61.1745C61.3918 35.968 61.6001 36.0547 61.7536 36.2089C61.9072 36.363 61.9934 36.572 61.9934 36.7899C61.9934 37.0077 61.9072 37.2167 61.7536 37.3709C61.6001 37.525 61.3918 37.6117 61.1745 37.612Z" fill="#CCCCCC"/>
<path d="M64.5563 40.3864H41.7074C41.5997 40.3865 41.493 40.3653 41.3934 40.3241C41.2939 40.2828 41.2034 40.2223 41.1272 40.1459C41.0509 40.0696 40.9905 39.9789 40.9492 39.8791C40.908 39.7793 40.8867 39.6723 40.8867 39.5643C40.8867 39.4563 40.908 39.3493 40.9492 39.2495C40.9905 39.1497 41.0509 39.059 41.1272 38.9826C41.2034 38.9063 41.2939 38.8458 41.3934 38.8045C41.493 38.7632 41.5997 38.7421 41.7074 38.7422H64.5563C64.7737 38.7422 64.9822 38.8288 65.136 38.983C65.2897 39.1371 65.3761 39.3463 65.3761 39.5643C65.3761 39.7823 65.2897 39.9914 65.136 40.1456C64.9822 40.2998 64.7737 40.3864 64.5563 40.3864Z" fill="#CCCCCC"/>
<path d="M61.1745 50.0465H41.7074C41.5997 50.0467 41.493 50.0255 41.3934 49.9842C41.2939 49.943 41.2034 49.8824 41.1272 49.8061C41.0509 49.7297 40.9905 49.6391 40.9492 49.5393C40.908 49.4395 40.8867 49.3325 40.8867 49.2244C40.8867 49.1164 40.908 49.0094 40.9492 48.9096C40.9905 48.8098 41.0509 48.7192 41.1272 48.6428C41.2034 48.5665 41.2939 48.5059 41.3934 48.4647C41.493 48.4234 41.5997 48.4022 41.7074 48.4023H61.1745C61.392 48.4023 61.6005 48.489 61.7542 48.6431C61.908 48.7973 61.9944 49.0064 61.9944 49.2244C61.9944 49.4425 61.908 49.6516 61.7542 49.8058C61.6005 49.9599 61.392 50.0465 61.1745 50.0465Z" fill="#CCCCCC"/>
<path d="M64.5563 52.821H41.7074C41.5997 52.8211 41.493 52.7999 41.3934 52.7586C41.2939 52.7174 41.2034 52.6569 41.1272 52.5805C41.0509 52.5041 40.9905 52.4135 40.9492 52.3137C40.908 52.2139 40.8867 52.1069 40.8867 51.9989C40.8867 51.8908 40.908 51.7838 40.9492 51.684C40.9905 51.5842 41.0509 51.4936 41.1272 51.4172C41.2034 51.3409 41.2939 51.2803 41.3934 51.2391C41.493 51.1978 41.5997 51.1766 41.7074 51.1768H64.5563C64.664 51.1766 64.7707 51.1978 64.8703 51.2391C64.9698 51.2803 65.0603 51.3409 65.1366 51.4172C65.2128 51.4936 65.2732 51.5842 65.3145 51.684C65.3558 51.7838 65.377 51.8908 65.377 51.9989C65.377 52.1069 65.3558 52.2139 65.3145 52.3137C65.2732 52.4135 65.2128 52.5041 65.1366 52.5805C65.0603 52.6569 64.9698 52.7174 64.8703 52.7586C64.7707 52.7999 64.664 52.8211 64.5563 52.821Z" fill="#CCCCCC"/>
<path d="M37.3487 41.6459H30.4595C30.3553 41.6458 30.2554 41.6042 30.1817 41.5303C30.108 41.4564 30.0665 41.3562 30.0664 41.2517V35.1022C30.0665 34.9977 30.108 34.8975 30.1817 34.8236C30.2554 34.7497 30.3553 34.7081 30.4595 34.708H37.3487C37.4529 34.7081 37.5529 34.7497 37.6266 34.8236C37.7003 34.8975 37.7417 34.9977 37.7418 35.1022V41.2517C37.7417 41.3562 37.7003 41.4564 37.6266 41.5303C37.5529 41.6042 37.4529 41.6458 37.3487 41.6459Z" fill="#CCCCCC"/>
<path d="M37.3487 54.0805H30.4595C30.3553 54.0803 30.2554 54.0388 30.1817 53.9649C30.108 53.891 30.0665 53.7908 30.0664 53.6863V47.5368C30.0665 47.4323 30.108 47.3321 30.1817 47.2582C30.2554 47.1843 30.3553 47.1427 30.4595 47.1426H37.3487C37.4529 47.1427 37.5529 47.1843 37.6266 47.2582C37.7003 47.3321 37.7417 47.4323 37.7418 47.5368V53.6863C37.7417 53.7908 37.7003 53.891 37.6266 53.9649C37.5529 54.0388 37.4529 54.0803 37.3487 54.0805Z" fill="#CCCCCC"/>
<path d="M61.1955 23.7702H46.8432C46.6258 23.7702 46.4173 23.6836 46.2636 23.5294C46.1098 23.3752 46.0234 23.1661 46.0234 22.9481C46.0234 22.73 46.1098 22.5209 46.2636 22.3668C46.4173 22.2126 46.6258 22.126 46.8432 22.126H61.1955C61.413 22.126 61.6215 22.2126 61.7752 22.3668C61.929 22.5209 62.0154 22.73 62.0154 22.9481C62.0154 23.1661 61.929 23.3752 61.7752 23.5294C61.6215 23.6836 61.413 23.7702 61.1955 23.7702Z" fill="#156DBF"/>
<path d="M64.5773 26.5446H46.8432C46.7356 26.5446 46.629 26.5233 46.5295 26.482C46.4301 26.4407 46.3397 26.3801 46.2636 26.3038C46.1874 26.2275 46.127 26.1368 46.0858 26.0371C46.0446 25.9374 46.0234 25.8304 46.0234 25.7225C46.0234 25.6145 46.0446 25.5076 46.0858 25.4079C46.127 25.3081 46.1874 25.2175 46.2636 25.1412C46.3397 25.0648 46.4301 25.0043 46.5295 24.963C46.629 24.9217 46.7356 24.9004 46.8432 24.9004H64.5773C64.7947 24.9004 65.0032 24.987 65.157 25.1412C65.3107 25.2954 65.3971 25.5045 65.3971 25.7225C65.3971 25.9405 65.3107 26.1496 65.157 26.3038C65.0032 26.458 64.7947 26.5446 64.5773 26.5446Z" fill="#156DBF"/>
<path d="M43.6676 29.9074H30.4361C30.3318 29.9073 30.2319 29.8657 30.1582 29.7918C30.0845 29.7179 30.0431 29.6177 30.043 29.5132V19.1579C30.0431 19.0534 30.0845 18.9532 30.1582 18.8793C30.2319 18.8054 30.3318 18.7638 30.4361 18.7637H43.6676C43.7719 18.7638 43.8718 18.8054 43.9455 18.8793C44.0192 18.9532 44.0606 19.0534 44.0607 19.1579V29.5132C44.0606 29.6177 44.0192 29.7179 43.9455 29.7918C43.8718 29.8657 43.7719 29.9073 43.6676 29.9074Z" fill="#156DBF"/>
</g>
<defs>
<clipPath id="clip0_1760_4809">
<rect width="80" height="72" fill="white"/>
</clipPath>
</defs>
</svg>
