<svg width="82" height="61" viewBox="0 0 82 61" fill="none" xmlns="http://www.w3.org/2000/svg">
<g clip-path="url(#clip0_1760_4772)">
<path d="M78.4595 56.6321H16.7403C15.8015 56.631 14.9014 56.2603 14.2375 55.6012C13.5737 54.9421 13.2003 54.0484 13.1992 53.1163V20.4093C13.2003 19.4772 13.5737 18.5836 14.2375 17.9245C14.9014 17.2654 15.8015 16.8946 16.7403 16.8936H78.4595C79.3984 16.8946 80.2984 17.2654 80.9623 17.9245C81.6261 18.5836 81.9996 19.4772 82.0006 20.4093V53.1163C81.9996 54.0484 81.6261 54.9421 80.9623 55.6012C80.2984 56.2603 79.3984 56.631 78.4595 56.6321Z" fill="white"/>
<path d="M78.4595 56.6321H16.7403C15.8015 56.631 14.9014 56.2603 14.2375 55.6012C13.5737 54.9421 13.2003 54.0484 13.1992 53.1163V20.4093C13.2003 19.4772 13.5737 18.5836 14.2375 17.9245C14.9014 17.2654 15.8015 16.8946 16.7403 16.8936H78.4595C79.3984 16.8946 80.2984 17.2654 80.9623 17.9245C81.6261 18.5836 81.9996 19.4772 82.0006 20.4093V53.1163C81.9996 54.0484 81.6261 54.9421 80.9623 55.6012C80.2984 56.2603 79.3984 56.631 78.4595 56.6321ZM16.7403 17.1066C15.8584 17.1076 15.0129 17.4559 14.3892 18.0751C13.7656 18.6942 13.4148 19.5337 13.4138 20.4093V53.1163C13.4148 53.9919 13.7656 54.8314 14.3892 55.4506C15.0129 56.0697 15.8584 56.418 16.7403 56.419H78.4595C79.3415 56.418 80.187 56.0697 80.8106 55.4506C81.4342 54.8314 81.785 53.9919 81.786 53.1163V20.4093C81.785 19.5337 81.4342 18.6942 80.8106 18.0751C80.187 17.4559 79.3415 17.1076 78.4595 17.1066H16.7403Z" fill="#156DBF"/>
<path d="M78.4584 54.0749H16.7392C16.4831 54.0746 16.2377 53.9735 16.0566 53.7938C15.8756 53.614 15.7737 53.3703 15.7734 53.1161V20.409C15.7737 20.1548 15.8756 19.9111 16.0566 19.7314C16.2377 19.5516 16.4831 19.4505 16.7392 19.4502H78.4584C78.7145 19.4505 78.96 19.5516 79.141 19.7314C79.3221 19.9111 79.4239 20.1548 79.4242 20.409V53.1161C79.4239 53.3703 79.3221 53.614 79.141 53.7938C78.96 53.9735 78.7145 54.0746 78.4584 54.0749ZM16.7392 19.6633C16.54 19.6635 16.3491 19.7421 16.2083 19.8819C16.0675 20.0218 15.9883 20.2113 15.988 20.409V53.1161C15.9883 53.3138 16.0675 53.5033 16.2083 53.6432C16.3491 53.783 16.54 53.8616 16.7392 53.8618H78.4584C78.6576 53.8616 78.8485 53.783 78.9893 53.6432C79.1301 53.5033 79.2094 53.3138 79.2096 53.1161V20.409C79.2094 20.2113 79.1301 20.0218 78.9893 19.8819C78.8485 19.7421 78.6576 19.6635 78.4584 19.6633H16.7392Z" fill="#156DBF"/>
<path d="M62.7526 54.2306L3.09381 38.5293C2.18659 38.2895 1.41225 37.7021 0.940656 36.8962C0.469066 36.0902 0.338741 35.1314 0.578275 34.2301L9.01927 2.615C9.26085 1.71428 9.85243 0.945475 10.6642 0.477261C11.476 0.00904586 12.4417 -0.120345 13.3495 0.117475L73.0083 15.8187C73.9155 16.0586 74.6898 16.6459 75.1614 17.4519C75.633 18.2579 75.7633 19.2167 75.5238 20.1179L67.0828 51.7331C66.8412 52.6338 66.2496 53.4026 65.4378 53.8708C64.626 54.339 63.6603 54.4684 62.7526 54.2306Z" fill="#156DBF"/>
<path d="M62.7526 54.2306L3.09381 38.5293C2.18659 38.2895 1.41225 37.7021 0.940656 36.8962C0.469066 36.0902 0.338741 35.1314 0.578275 34.2301L9.01927 2.615C9.26085 1.71428 9.85243 0.945475 10.6642 0.477261C11.476 0.00904586 12.4417 -0.120345 13.3495 0.117475L73.0083 15.8187C73.9155 16.0586 74.6898 16.6459 75.1614 17.4519C75.633 18.2579 75.7633 19.2167 75.5238 20.1179L67.0828 51.7331C66.8412 52.6338 66.2496 53.4026 65.4378 53.8708C64.626 54.339 63.6603 54.4684 62.7526 54.2306ZM13.2945 0.323437C12.4417 0.100034 11.5346 0.221585 10.772 0.661422C10.0094 1.10126 9.45366 1.82347 9.22671 2.6696L0.785723 34.2847C0.560711 35.1314 0.683139 36.032 1.12615 36.7892C1.56915 37.5463 2.29656 38.0981 3.14879 38.3234L62.8076 54.0246C63.6603 54.248 64.5675 54.1265 65.3301 53.6866C66.0927 53.2468 66.6484 52.5246 66.8754 51.6785L75.3163 20.0633C75.5414 19.2167 75.4189 18.316 74.9759 17.5589C74.5329 16.8017 73.8055 16.25 72.9533 16.0247L13.2945 0.323437Z" fill="#E6E6E6"/>
<path d="M63.412 51.7594L3.75321 36.0582C3.50579 35.9927 3.2946 35.8326 3.16599 35.6127C3.03738 35.3929 3.00183 35.1314 3.06715 34.8857L11.5081 3.27053C11.574 3.02488 11.7354 2.81521 11.9568 2.68751C12.1782 2.55982 12.4415 2.52453 12.6891 2.58939L72.3479 18.2906C72.5953 18.356 72.8065 18.5162 72.9351 18.736C73.0637 18.9559 73.0993 19.2173 73.0339 19.4631L64.593 51.0783C64.5271 51.3239 64.3657 51.5336 64.1443 51.6613C63.9229 51.789 63.6596 51.8243 63.412 51.7594ZM12.6341 2.79535C12.4416 2.7449 12.2367 2.77235 12.0645 2.87166C11.8923 2.97098 11.7668 3.13406 11.7156 3.32513L3.2746 34.9402C3.22379 35.1314 3.25143 35.3348 3.35147 35.5058C3.4515 35.6767 3.61576 35.8013 3.8082 35.8522L63.467 51.5534C63.6595 51.6039 63.8644 51.5764 64.0366 51.4771C64.2088 51.3778 64.3343 51.2147 64.3855 51.0237L72.8265 19.4085C72.8773 19.2174 72.8497 19.014 72.7496 18.843C72.6496 18.6721 72.4853 18.5475 72.2929 18.4966L12.6341 2.79535Z" fill="white"/>
<path d="M65.2603 61.0002H3.54108C2.60226 60.9992 1.70218 60.6284 1.03833 59.9693C0.374478 59.3102 0.0010605 58.4166 0 57.4845V24.7775C0.0010605 23.8453 0.374478 22.9517 1.03833 22.2926C1.70218 21.6335 2.60226 21.2628 3.54108 21.2617H65.2603C66.1992 21.2628 67.0992 21.6335 67.7631 22.2926C68.4269 22.9517 68.8003 23.8453 68.8014 24.7775V57.4845C68.8003 58.4166 68.4269 59.3102 67.7631 59.9693C67.0992 60.6284 66.1992 60.9992 65.2603 61.0002Z" fill="white"/>
<path d="M48.4937 58.23H8.63721C8.58731 58.2302 8.53746 58.229 8.48828 58.2262L27.3386 47.6861C27.6975 47.4813 28.5028 47.4092 29.1372 47.525C29.3112 47.5516 29.4796 47.606 29.6361 47.6861L42.287 54.7593L42.8931 55.0978L48.4937 58.23Z" fill="#E6E6E6"/>
<path d="M61.0664 58.23H26.5938L33.2739 55.0978L33.7546 54.8721L42.4594 50.7902C43.0301 50.5227 44.4029 50.506 45.0739 50.7398C45.119 50.7557 45.1608 50.7725 45.1993 50.7902L61.0664 58.23Z" fill="#E6E6E6"/>
<path d="M3.54132 21.4746C2.65939 21.4756 1.81387 21.8239 1.19025 22.443C0.566631 23.0622 0.215844 23.9017 0.214844 24.7773V57.4843C0.215844 58.3599 0.566631 59.1994 1.19025 59.8186C1.81387 60.4377 2.65939 60.786 3.54132 60.787H65.2606C66.1425 60.786 66.988 60.4377 67.6116 59.8186C68.2353 59.1994 68.586 58.3599 68.587 57.4843V24.7773C68.586 23.9017 68.2353 23.0622 67.6116 22.443C66.988 21.8239 66.1425 21.4756 65.2606 21.4746H3.54132Z" fill="#3F3D56"/>
<path d="M65.2592 58.4431H3.53997C3.28393 58.4428 3.03845 58.3417 2.8574 58.1619C2.67635 57.9822 2.57451 57.7384 2.57422 57.4842V24.7772C2.57451 24.523 2.67635 24.2793 2.8574 24.0995C3.03845 23.9198 3.28393 23.8187 3.53997 23.8184H65.2592C65.5153 23.8187 65.7607 23.9198 65.9418 24.0995C66.1228 24.2793 66.2247 24.523 66.225 24.7772V57.4842C66.2247 57.7384 66.1228 57.9822 65.9418 58.1619C65.7607 58.3417 65.5153 58.4428 65.2592 58.4431ZM3.53997 24.0314C3.34082 24.0317 3.1499 24.1103 3.00908 24.2501C2.86826 24.3899 2.78905 24.5795 2.78883 24.7772V57.4842C2.78905 57.682 2.86826 57.8715 3.00908 58.0113C3.1499 58.1511 3.34082 58.2298 3.53997 58.23H65.2592C65.4584 58.2298 65.6493 58.1511 65.7901 58.0113C65.9309 57.8715 66.0101 57.682 66.0104 57.4842V24.7772C66.0101 24.5795 65.9309 24.3899 65.7901 24.2501C65.6493 24.1103 65.4584 24.0317 65.2592 24.0314H3.53997Z" fill="#CCCCCC"/>
<path d="M51.5097 29.8052C55.1783 29.8052 58.1523 26.8526 58.1523 23.2102C58.1523 19.5679 55.1783 16.6152 51.5097 16.6152C47.8412 16.6152 44.8672 19.5679 44.8672 23.2102C44.8672 26.8526 47.8412 29.8052 51.5097 29.8052Z" fill="#FF6584"/>
<path d="M54.2842 47.2212C58.9306 47.2212 62.6973 42.5402 62.6973 36.7658C62.6973 30.9915 58.9306 26.3105 54.2842 26.3105C49.6378 26.3105 45.8711 30.9915 45.8711 36.7658C45.8711 42.5402 49.6378 47.2212 54.2842 47.2212Z" fill="#F2F2F2"/>
<path d="M54.3103 34.6641H54.3334L54.7494 58.3458H53.8711L54.3103 34.6641Z" fill="#CCCCCC"/>
<path d="M55.7454 50.3418C55.7711 50.3902 55.7764 50.4468 55.76 50.4992C55.7437 50.5515 55.7071 50.5952 55.6583 50.6207L54.4516 51.2514L54.2578 50.886L55.4645 50.2552C55.5133 50.2297 55.5703 50.2245 55.623 50.2407C55.6757 50.2569 55.7197 50.2933 55.7454 50.3418Z" fill="#CCCCCC"/>
<path d="M30.0967 47.2212C34.7431 47.2212 38.5098 42.5402 38.5098 36.7658C38.5098 30.9915 34.7431 26.3105 30.0967 26.3105C25.4503 26.3105 21.6836 30.9915 21.6836 36.7658C21.6836 42.5402 25.4503 47.2212 30.0967 47.2212Z" fill="#F2F2F2"/>
<path d="M31.5577 50.7337C31.532 50.6852 31.4879 50.6489 31.4352 50.6326C31.3825 50.6164 31.3255 50.6216 31.2767 50.6471L30.4343 51.0875L30.1458 34.6641H30.1227L29.6836 58.3458H30.5619L30.4425 51.55L31.4705 51.0126C31.5193 50.9871 31.5559 50.9434 31.5723 50.8911C31.5886 50.8388 31.5834 50.7821 31.5577 50.7337Z" fill="#CCCCCC"/>
<path d="M42.1633 12.6709C48.0508 12.6709 52.8362 23.685 52.8362 31.0017C52.8362 38.3183 48.0634 44.2497 42.1759 44.2497C36.2884 44.2497 31.5156 38.3183 31.5156 31.0017C31.5156 23.685 36.2758 12.6709 42.1633 12.6709Z" fill="#6C63FF"/>
<path d="M44.0231 48.5934C44.007 48.563 43.985 48.536 43.9583 48.514C43.9317 48.4921 43.901 48.4755 43.868 48.4653C43.8349 48.4552 43.8001 48.4515 43.7657 48.4547C43.7312 48.4578 43.6977 48.4677 43.6671 48.4837L42.5997 49.0416L42.2341 28.2314H42.2049L41.6484 58.2388H42.7613L42.61 49.6277L43.9127 48.9468C43.9433 48.9308 43.9705 48.909 43.9926 48.8826C44.0147 48.8561 44.0314 48.8256 44.0416 48.7928C44.0519 48.76 44.0555 48.7255 44.0523 48.6912C44.0491 48.657 44.0392 48.6238 44.0231 48.5934Z" fill="#3F3D56"/>
<path d="M65.4752 60.7873H3.75593C2.8171 60.7863 1.91703 60.4155 1.25317 59.7564C0.589322 59.0973 0.215904 58.2037 0.214844 57.2716V24.5646C0.215904 23.6325 0.589322 22.7388 1.25317 22.0797C1.91703 21.4206 2.8171 21.0499 3.75593 21.0488H65.4752C66.414 21.0499 67.3141 21.4206 67.9779 22.0797C68.6418 22.7388 69.0152 23.6325 69.0163 24.5646V57.2716C69.0152 58.2037 68.6418 59.0973 67.9779 59.7564C67.3141 60.4155 66.414 60.7863 65.4752 60.7873Z" fill="white"/>
<path d="M48.7047 58.0171H8.84815C8.79825 58.0173 8.74839 58.0161 8.69922 58.0133L27.5495 47.4732C27.9084 47.2684 28.7137 47.1963 29.3482 47.3121C29.5221 47.3387 29.6906 47.3931 29.847 47.4732L42.4979 54.5464L43.104 54.8849L48.7047 58.0171Z" fill="#156DBF"/>
<path d="M61.2812 58.0171H26.8086L33.4887 54.8849L33.9694 54.6592L42.6742 50.5773C43.2449 50.3098 44.6178 50.2931 45.2888 50.5269C45.3338 50.5428 45.3756 50.5596 45.4141 50.5773L61.2812 58.0171Z" fill="#156DBF"/>
<path d="M65.4752 60.7873H3.75593C2.8171 60.7863 1.91703 60.4155 1.25317 59.7564C0.589322 59.0973 0.215904 58.2037 0.214844 57.2716V24.5646C0.215904 23.6325 0.589322 22.7388 1.25317 22.0797C1.91703 21.4206 2.8171 21.0499 3.75593 21.0488H65.4752C66.414 21.0499 67.3141 21.4206 67.9779 22.0797C68.6418 22.7388 69.0152 23.6325 69.0163 24.5646V57.2716C69.0152 58.2037 68.6418 59.0973 67.9779 59.7564C67.3141 60.4155 66.414 60.7863 65.4752 60.7873ZM3.75593 21.2619C2.874 21.2629 2.02848 21.6112 1.40486 22.2303C0.781242 22.8495 0.430455 23.689 0.429455 24.5646V57.2716C0.430455 58.1472 0.781242 58.9867 1.40486 59.6058C2.02848 60.225 2.874 60.5733 3.75593 60.5743H65.4752C66.3571 60.5733 67.2026 60.225 67.8262 59.6058C68.4499 58.9867 68.8006 58.1472 68.8016 57.2716V24.5646C68.8006 23.689 68.4499 22.8495 67.8262 22.2303C67.2026 21.6112 66.3571 21.2629 65.4752 21.2619H3.75593Z" fill="#156DBF"/>
<path d="M65.4741 58.2302H3.75481C3.49877 58.2299 3.2533 58.1288 3.07225 57.949C2.8912 57.7693 2.78936 57.5256 2.78906 57.2713V24.5643C2.78936 24.3101 2.8912 24.0664 3.07225 23.8866C3.2533 23.7069 3.49877 23.6058 3.75481 23.6055H65.4741C65.7301 23.6058 65.9756 23.7069 66.1566 23.8866C66.3377 24.0664 66.4395 24.3101 66.4398 24.5643V57.2713C66.4395 57.5256 66.3377 57.7693 66.1566 57.949C65.9756 58.1288 65.7301 58.2299 65.4741 58.2302ZM3.75481 23.8185C3.55567 23.8188 3.36474 23.8974 3.22392 24.0372C3.08311 24.177 3.0039 24.3666 3.00367 24.5643V57.2713C3.0039 57.4691 3.08311 57.6586 3.22392 57.7984C3.36474 57.9382 3.55567 58.0169 3.75481 58.0171H65.4741C65.6732 58.0169 65.8641 57.9382 66.0049 57.7984C66.1458 57.6586 66.225 57.4691 66.2252 57.2713V24.5643C66.225 24.3666 66.1458 24.177 66.0049 24.0372C65.8641 23.8974 65.6732 23.8188 65.4741 23.8185H3.75481Z" fill="#156DBF"/>
<path d="M51.7246 29.5924C55.3932 29.5924 58.3671 26.6397 58.3671 22.9973C58.3671 19.355 55.3932 16.4023 51.7246 16.4023C48.056 16.4023 45.082 19.355 45.082 22.9973C45.082 26.6397 48.056 29.5924 51.7246 29.5924Z" fill="#00AAEE"/>
<path d="M54.499 47.0083C59.1455 47.0083 62.9121 42.3273 62.9121 36.553C62.9121 30.7787 59.1455 26.0977 54.499 26.0977C49.8526 26.0977 46.0859 30.7787 46.0859 36.553C46.0859 42.3273 49.8526 47.0083 54.499 47.0083Z" fill="#CCCCCC"/>
<path d="M54.5251 34.4502H54.5482L54.9642 58.1319H54.0859L54.5251 34.4502Z" fill="#156DBF"/>
<path d="M55.9564 50.1289C55.9821 50.1773 55.9873 50.234 55.971 50.2863C55.9546 50.3386 55.918 50.3823 55.8692 50.4078L54.6626 51.0386L54.4688 50.6731L55.6754 50.0423C55.7242 50.0168 55.7812 50.0116 55.8339 50.0278C55.8866 50.0441 55.9307 50.0804 55.9564 50.1289Z" fill="#156DBF"/>
<path d="M30.3115 47.0083C34.958 47.0083 38.7246 42.3273 38.7246 36.553C38.7246 30.7787 34.958 26.0977 30.3115 26.0977C25.6651 26.0977 21.8984 30.7787 21.8984 36.553C21.8984 42.3273 25.6651 47.0083 30.3115 47.0083Z" fill="#CCCCCC"/>
<path d="M31.7725 50.5198C31.7468 50.4713 31.7028 50.435 31.6501 50.4188C31.5974 50.4025 31.5404 50.4078 31.4915 50.4333L30.6492 50.8736L30.3606 34.4502H30.3375L29.8984 58.132H30.7767L30.6573 51.3361L31.6854 50.7988C31.7342 50.7732 31.7708 50.7295 31.7871 50.6772C31.8035 50.6249 31.7982 50.5683 31.7725 50.5198Z" fill="#156DBF"/>
<path d="M42.3782 12.458C48.2657 12.458 53.0511 23.4721 53.0511 30.7888C53.0511 38.1054 48.2783 44.0368 42.3908 44.0368C36.5032 44.0368 31.7305 38.1054 31.7305 30.7888C31.7305 23.4721 36.4907 12.458 42.3782 12.458Z" fill="#156DBF" fill-opacity="0.5"/>
<path d="M44.2379 48.3805C44.2218 48.3501 44.1998 48.3231 44.1732 48.3011C44.1466 48.2792 44.1159 48.2626 44.0828 48.2524C44.0497 48.2423 44.015 48.2386 43.9805 48.2418C43.9461 48.245 43.9126 48.2548 43.8819 48.2708L42.8145 48.8288L42.449 28.0186H42.4197L41.8633 58.0259H42.9761L42.8249 49.4149L44.1275 48.7339C44.1581 48.7179 44.1853 48.6961 44.2074 48.6697C44.2295 48.6432 44.2462 48.6127 44.2565 48.5799C44.2667 48.5471 44.2704 48.5126 44.2672 48.4784C44.264 48.4441 44.254 48.4109 44.2379 48.3805Z" fill="#156DBF"/>
</g>
<defs>
<clipPath id="clip0_1760_4772">
<rect width="82" height="61" fill="white"/>
</clipPath>
</defs>
</svg>
