<svg width="132" height="129" viewBox="0 0 132 129" fill="none" xmlns="http://www.w3.org/2000/svg">
<path d="M7.22125 45.8269C9.37703 50.0702 13.9524 51.8918 13.9524 51.8918C13.9524 51.8918 15.0325 46.8336 12.8767 42.5903C10.7209 38.347 6.14559 36.5254 6.14559 36.5254C6.14559 36.5254 5.06546 41.5836 7.22125 45.8269Z" fill="#00AAEE"/>
<path d="M8.70342 44.4302C12.5955 46.9154 14.0945 51.8519 14.0945 51.8519C14.0945 51.8519 9.28312 52.7589 5.39104 50.2736C1.49896 47.7884 0 42.8519 0 42.8519C0 42.8519 4.81134 41.9449 8.70342 44.4302Z" fill="#156DBF"/>
<path d="M84.3005 55.5449H13.1836V98.6241H84.3005V55.5449Z" fill="white"/>
<path d="M58.1263 78.9402C57.9806 79.0376 57.8299 79.1281 57.674 79.2115C56.4069 79.8879 54.9387 80.0032 53.5916 79.5321C52.2445 79.061 51.1285 78.042 50.4884 76.6987L49.3345 74.2703L50.109 73.8559L51.2629 76.2843C51.5277 76.8424 51.8936 77.3398 52.3397 77.7478C52.7857 78.1558 53.3031 78.4666 53.8623 78.6623C54.4215 78.8581 55.0116 78.935 55.5988 78.8886C56.186 78.8422 56.7589 78.6735 57.2846 78.392C57.8104 78.1106 58.2788 77.722 58.663 77.2484C59.0472 76.7748 59.3397 76.2254 59.5238 75.6318C59.7079 75.0382 59.78 74.4118 59.736 73.7886C59.692 73.1654 59.5327 72.5575 59.2672 71.9996L54.4215 61.8017C54.1564 61.2439 53.7904 60.7469 53.3444 60.3392C52.8984 59.9315 52.3811 59.6211 51.822 59.4256C51.2629 59.2301 50.6731 59.1533 50.0861 59.1998C49.4991 59.2462 48.9264 59.4149 48.4008 59.6963C47.8753 59.9776 47.4071 60.3661 47.0229 60.8395C46.6388 61.3128 46.3463 61.8619 46.1621 62.4553C45.9779 63.0486 45.9056 63.6747 45.9493 64.2977C45.9931 64.9208 46.1521 65.5285 46.4171 66.0864L48.1328 69.6969L47.3583 70.1113L45.6426 66.5008C45.0043 65.1563 44.8952 63.5977 45.3393 62.1678C45.7835 60.7379 46.7445 59.5538 48.0111 58.8758C49.2777 58.1978 50.7462 58.0816 52.0935 58.5525C53.4409 59.0235 54.5568 60.0432 55.196 61.3873L60.0417 71.5852C60.6401 72.8447 60.7754 74.2954 60.4214 75.655C60.0673 77.0146 59.2492 78.1856 58.1263 78.9402Z" fill="#3F3D56"/>
<path d="M58.5945 91.5277C58.4508 91.6238 58.3018 91.7133 58.1474 91.796C56.8803 92.4724 55.4121 92.5877 54.065 92.1166C52.7179 91.6455 51.6019 90.6265 50.9618 89.2832L46.116 79.0853C45.4771 77.7407 45.3677 76.1818 45.8117 74.7516C46.2557 73.3213 47.2169 72.1369 48.4838 71.4588C49.7506 70.7807 51.2194 70.6645 52.5669 71.1358C53.9145 71.6071 55.0305 72.6272 55.6694 73.9718L56.9423 76.6508L56.1678 77.0652L54.8949 74.3862C54.6298 73.8284 54.2638 73.3315 53.8178 72.9238C53.3718 72.5161 52.8545 72.2056 52.2954 72.0101C51.7363 71.8146 51.1464 71.7379 50.5594 71.7843C49.9724 71.8308 49.3998 71.9995 48.8742 72.2808C48.3486 72.5621 47.8804 72.9506 47.4963 73.424C47.1122 73.8974 46.8196 74.4464 46.6354 75.0398C46.4512 75.6332 46.3789 76.2592 46.4227 76.8822C46.4665 77.5053 46.6254 78.1131 46.8905 78.6709L51.7362 88.8688C52.0011 89.4269 52.367 89.9243 52.813 90.3323C53.259 90.7403 53.7764 91.0511 54.3357 91.2468C54.8949 91.4426 55.485 91.5195 56.0722 91.4731C56.6594 91.4267 57.2322 91.258 57.758 90.9765C58.2838 90.6951 58.7521 90.3065 59.1363 89.8329C59.5205 89.3593 59.8131 88.8099 59.9972 88.2163C60.1813 87.6227 60.2534 86.9963 60.2094 86.3731C60.1653 85.7499 60.0061 85.142 59.7406 84.5841L58.0726 81.0739L58.8471 80.6595L60.5151 84.1697C61.1123 85.4305 61.2464 86.8819 60.8914 88.2418C60.5365 89.6016 59.7178 90.7729 58.5945 91.5277Z" fill="#3F3D56"/>
<path d="M81.1445 99.2421C87.91 99.2421 93.3945 93.7576 93.3945 86.9921V63.6787C93.3945 56.9132 87.91 51.4287 81.1445 51.4287H25.0078C18.2423 51.4287 12.7578 56.9132 12.7578 63.6787V86.9921C12.7578 93.7576 18.2423 99.2421 25.0078 99.2421H81.1445ZM25.3547 98.3739C18.8654 98.3739 13.6047 93.1133 13.6047 86.6239V64.0469C13.6047 57.5576 18.8654 52.2969 25.3547 52.2969H80.7976C87.2869 52.2969 92.5476 57.5576 92.5476 64.0469V86.6239C92.5476 93.1133 87.2869 98.3739 80.7976 98.3739H25.3547Z" fill="#00AAEE" stroke="#00AAEE" stroke-width="0.5"/>
</svg>
