<svg width="125" height="123" viewBox="0 0 125 123" fill="none" xmlns="http://www.w3.org/2000/svg">
<g id="undraw_link_shortener_mvf6 1">
<path id="Vector" d="M21.8008 49.7584C23.8307 53.7539 28.1389 55.4691 28.1389 55.4691C28.1389 55.4691 29.156 50.7063 27.1261 46.7107C25.0962 42.7152 20.788 41 20.788 41C20.788 41 19.7709 45.7628 21.8008 49.7584Z" fill="#00AAEE"/>
<path id="Vector_2" d="M23.1952 48.4428C26.86 50.783 28.2715 55.4312 28.2715 55.4312C28.2715 55.4312 23.7411 56.2853 20.0763 53.9451C16.4114 51.6049 15 46.9567 15 46.9567C15 46.9567 19.5304 46.1027 23.1952 48.4428Z" fill="#156DBF"/>
<path id="Vector_3" d="M64.6382 75.7785C64.4414 75.9142 64.2377 76.0401 64.0272 76.1563C62.3154 77.0978 60.3319 77.2583 58.512 76.6025C56.6921 75.9467 55.1844 74.5282 54.3196 72.6581L52.7608 69.2775L53.8071 68.7006L55.3659 72.0812C55.7238 72.8583 56.2181 73.5506 56.8206 74.1186C57.4232 74.6866 58.1222 75.1193 58.8777 75.3918C59.6332 75.6642 60.4303 75.7713 61.2236 75.7067C62.017 75.6421 62.7909 75.4072 63.5011 75.0155C64.2114 74.6237 64.8442 74.0827 65.3632 73.4233C65.8823 72.764 66.2774 71.9993 66.5262 71.1729C66.7749 70.3465 66.8723 69.4746 66.8129 68.607C66.7534 67.7394 66.5382 66.8931 66.1796 66.1165L59.6332 51.9199C59.2751 51.1434 58.7806 50.4516 58.178 49.884C57.5755 49.3164 56.8766 48.8842 56.1213 48.6121C55.366 48.3399 54.5691 48.2331 53.7761 48.2977C52.9831 48.3624 52.2095 48.5973 51.4994 48.9889C50.7894 49.3806 50.1569 49.9213 49.6379 50.5803C49.119 51.2393 48.7238 52.0037 48.4749 52.8297C48.2261 53.6558 48.1284 54.5273 48.1875 55.3947C48.2467 56.262 48.4614 57.1081 48.8195 57.8846L51.1373 62.9109L50.091 63.4878L47.7732 58.4615C46.9108 56.5898 46.7634 54.4201 47.3634 52.4295C47.9634 50.4389 49.2618 48.7905 50.9729 47.8467C52.684 46.9029 54.6679 46.741 56.4881 47.3967C58.3084 48.0524 59.816 49.4718 60.6794 51.343L67.2258 65.5396C68.0342 67.2929 68.2171 69.3126 67.7387 71.2052C67.2604 73.0979 66.1552 74.7281 64.6382 75.7785Z" fill="#3F3D56"/>
<path id="Vector_4" d="M65.6338 92.7828C65.4397 92.9166 65.2384 93.0411 65.0298 93.1563C63.3178 94.0978 61.3342 94.2583 59.5141 93.6026C57.694 92.9468 56.1861 91.5284 55.3213 89.6584L48.7743 75.4628C47.9111 73.5911 47.7632 71.4212 48.3631 69.4302C48.963 67.4393 50.2617 65.7906 51.9733 64.8466C53.6849 63.9027 55.6694 63.741 57.49 64.397C59.3107 65.0531 60.8185 66.4731 61.6817 68.3448L63.4016 72.074L62.3552 72.6508L60.6353 68.9216C60.2772 68.1452 59.7827 67.4534 59.1801 66.8859C58.5774 66.3183 57.8785 65.8862 57.1232 65.614C56.3678 65.3419 55.5708 65.2351 54.7777 65.2997C53.9846 65.3644 53.2109 65.5992 52.5008 65.9909C51.7907 66.3825 51.1581 66.9232 50.6391 67.5822C50.1201 68.2411 49.7249 69.0054 49.476 69.8314C49.2271 70.6574 49.1295 71.5289 49.1886 72.3961C49.2477 73.2634 49.4625 74.1094 49.8206 74.8859L56.3677 89.0815C56.7255 89.8585 57.2199 90.5508 57.8225 91.1188C58.4251 91.6868 59.1242 92.1194 59.8798 92.3918C60.6353 92.6643 61.4326 92.7713 62.2259 92.7067C63.0193 92.6422 63.7933 92.4073 64.5037 92.0156C65.214 91.6238 65.8468 91.0828 66.3659 90.4235C66.885 89.7643 67.2802 88.9996 67.529 88.1733C67.7778 87.3469 67.8752 86.4751 67.8157 85.6075C67.7562 84.74 67.541 83.8938 67.1824 83.1172L64.9288 78.2309L65.9751 77.6541L68.2287 82.5404C69.0356 84.2954 69.2168 86.3157 68.7373 88.2087C68.2577 90.1017 67.1515 91.7321 65.6338 92.7828Z" fill="#3F3D56"/>
</g>
</svg>
