<svg width="14" height="18" viewBox="0 0 14 18" fill="none" xmlns="http://www.w3.org/2000/svg">
<path d="M13 7.5C13 12 7 16.5 7 16.5C7 16.5 1 12 1 7.5C1 5.9087 1.63214 4.38258 2.75736 3.25736C3.88258 2.13214 5.4087 1.5 7 1.5C8.5913 1.5 10.1174 2.13214 11.2426 3.25736C12.3679 4.38258 13 5.9087 13 7.5V7.5Z" stroke="#FF5522" stroke-width="1.5" stroke-linecap="round" stroke-linejoin="round"/>
<path d="M7 9.75C8.24264 9.75 9.25 8.74264 9.25 7.5C9.25 6.25736 8.24264 5.25 7 5.25C5.75736 5.25 4.75 6.25736 4.75 7.5C4.75 8.74264 5.75736 9.75 7 9.75Z" stroke="#FF5522" stroke-width="1.5" stroke-linecap="round" stroke-linejoin="round"/>
</svg>
