<svg width="33" height="30" viewBox="0 0 33 30" fill="none" xmlns="http://www.w3.org/2000/svg">
<path d="M26.8125 15H18.0139L12.8576 9.375H5.15625C4.33599 9.37574 3.54956 9.6723 2.96954 10.1996C2.38953 10.7269 2.06332 11.4418 2.0625 12.1875V17.8125C2.06305 18.3096 2.28052 18.7863 2.6672 19.1378C3.05387 19.4893 3.57816 19.687 4.125 19.6875V26.25C4.12555 26.7471 4.34302 27.2238 4.7297 27.5753C5.11637 27.9268 5.64066 28.1245 6.1875 28.125H10.3125C10.8593 28.1245 11.3836 27.9268 11.7703 27.5753C12.157 27.2238 12.3745 26.7471 12.375 26.25V19.6875H10.3125V26.25H6.1875V17.8125H4.125V12.1875C4.125 11.9389 4.23365 11.7004 4.42705 11.5246C4.62044 11.3488 4.88275 11.25 5.15625 11.25H11.8924L17.0486 16.875H26.8125C27.086 16.875 27.3483 16.9738 27.5417 17.1496C27.7351 17.3254 27.8438 17.5639 27.8438 17.8125V20.625H25.7812V26.25H22.6875V20.625H20.625V26.25C20.6255 26.7471 20.843 27.2238 21.2297 27.5753C21.6164 27.9268 22.1407 28.1245 22.6875 28.125H25.7812C26.3281 28.1245 26.8524 27.9268 27.2391 27.5753C27.6257 27.2238 27.8432 26.7471 27.8438 26.25V22.5C28.3906 22.4995 28.9149 22.3018 29.3016 21.9503C29.6882 21.5988 29.9057 21.1221 29.9062 20.625V17.8125C29.9054 17.0668 29.5792 16.3519 28.9992 15.8246C28.4192 15.2973 27.6328 15.0007 26.8125 15Z" fill="black"/>
<path d="M24.2344 14.0625C23.5205 14.0625 22.8227 13.8701 22.2291 13.5095C21.6356 13.149 21.1729 12.6365 20.8997 12.0369C20.6266 11.4374 20.5551 10.7776 20.6944 10.1411C20.8336 9.50461 21.1774 8.91995 21.6822 8.46106C22.1869 8.00217 22.8301 7.68966 23.5302 7.56305C24.2304 7.43644 24.9561 7.50142 25.6156 7.74977C26.2752 7.99812 26.8389 8.41869 27.2355 8.95829C27.6321 9.49789 27.8438 10.1323 27.8438 10.7813C27.8427 11.6512 27.462 12.4852 26.7854 13.1003C26.1087 13.7155 25.1913 14.0615 24.2344 14.0625ZM24.2344 9.375C23.9284 9.375 23.6294 9.45748 23.375 9.612C23.1206 9.76652 22.9223 9.98615 22.8053 10.2431C22.6882 10.5001 22.6575 10.7828 22.7172 11.0556C22.7769 11.3284 22.9242 11.579 23.1406 11.7756C23.3569 11.9723 23.6325 12.1062 23.9326 12.1605C24.2327 12.2147 24.5437 12.1869 24.8263 12.0805C25.109 11.974 25.3506 11.7938 25.5206 11.5625C25.6905 11.3313 25.7813 11.0594 25.7813 10.7813C25.7807 10.4084 25.6176 10.051 25.3276 9.78743C25.0376 9.52382 24.6445 9.3755 24.2344 9.375ZM8.25 8.4375C7.43415 8.4375 6.63663 8.21757 5.95827 7.80551C5.27992 7.39346 4.75121 6.80779 4.439 6.12256C4.12679 5.43734 4.0451 4.68334 4.20426 3.95591C4.36343 3.22848 4.75629 2.5603 5.33319 2.03585C5.91008 1.5114 6.64508 1.15425 7.44525 1.00956C8.24543 0.864862 9.07483 0.939125 9.82857 1.22295C10.5823 1.50678 11.2266 1.98743 11.6798 2.60411C12.1331 3.2208 12.375 3.94582 12.375 4.6875C12.3739 5.68176 11.939 6.63501 11.1656 7.33806C10.3923 8.0411 9.34368 8.43651 8.25 8.4375ZM8.25 2.8125C7.84208 2.8125 7.44331 2.92247 7.10414 3.1285C6.76496 3.33452 6.50061 3.62736 6.3445 3.96997C6.18839 4.31258 6.14755 4.68958 6.22713 5.0533C6.30671 5.41701 6.50315 5.7511 6.79159 6.01333C7.08004 6.27555 7.44754 6.45413 7.84763 6.52647C8.24771 6.59882 8.66241 6.56169 9.03929 6.41978C9.41616 6.27786 9.73828 6.03754 9.96491 5.7292C10.1915 5.42085 10.3125 5.05834 10.3125 4.6875C10.312 4.19037 10.0945 3.71375 9.70781 3.36222C9.32113 3.0107 8.79684 2.813 8.25 2.8125Z" fill="black"/>
</svg>
