<svg width="159" height="31" viewBox="0 0 159 31" fill="none" xmlns="http://www.w3.org/2000/svg">
<rect width="159" height="31" rx="15.5" fill="#FF5522" fill-opacity="0.2"/>
<circle cx="24.5" cy="15.5" r="7.5" fill="#FF3A3A"/>
<path d="M51.125 23V9.68457H53.1992L58.5693 19.8271V9.68457H59.8701V23H58.7539L52.4258 10.9766V23H51.125ZM61.54 18.3066C61.54 16.8887 61.8564 15.7549 62.4893 14.9053C63.1279 14.0557 64.0186 13.6309 65.1611 13.6309C66.3037 13.6309 67.1885 14.0586 67.8154 14.9141C68.4482 15.7695 68.7646 16.9121 68.7646 18.3418C68.7646 19.7715 68.4453 20.9229 67.8066 21.7959C67.1738 22.6689 66.292 23.1055 65.1611 23.1055C64.0068 23.1055 63.1104 22.6543 62.4717 21.752C61.8506 20.8672 61.54 19.7188 61.54 18.3066ZM62.7002 18.3594C62.7002 20.2168 63.1836 21.3945 64.1504 21.8926C64.4434 22.0449 64.7803 22.1211 65.1611 22.1211C65.542 22.1211 65.8789 22.0449 66.1719 21.8926C66.4707 21.7402 66.708 21.5439 66.8838 21.3037C67.0596 21.0635 67.2031 20.7734 67.3145 20.4336C67.5078 19.8418 67.6045 19.1533 67.6045 18.3682C67.6045 15.8662 66.7871 14.6152 65.1523 14.6152C63.5176 14.6152 62.7002 15.8633 62.7002 18.3594ZM69.5469 14.7119V13.7275H71.1113V10.3438H72.2715V13.7275H74.3984V14.7119H72.2715V20.5918C72.2715 21.1836 72.3623 21.5879 72.5439 21.8047C72.7256 22.0215 73.0244 22.1299 73.4404 22.1299C73.6104 22.1299 73.8125 22.1152 74.0469 22.0859C74.2812 22.0566 74.3984 22.0391 74.3984 22.0332V22.9033C74.0117 23.0439 73.6338 23.1143 73.2646 23.1143C72.9014 23.1143 72.6523 23.1055 72.5176 23.0879C72.3828 23.0703 72.2188 23.0146 72.0254 22.9209C71.832 22.8271 71.6738 22.6953 71.5508 22.5254C71.2578 22.1152 71.1113 21.4707 71.1113 20.5918V14.7119H69.5469ZM80.0762 19.0977C79.9648 18.6406 79.8828 18.1836 79.8301 17.7266C79.7832 17.2695 79.7598 16.7568 79.7598 16.1885C79.7598 15.6143 79.8096 15.0137 79.9092 14.3867C80.0146 13.7539 80.1875 13.1416 80.4277 12.5498C80.668 11.9521 80.9668 11.4336 81.3242 10.9941C81.6816 10.5547 82.1299 10.2031 82.6689 9.93945C83.2139 9.66992 83.7676 9.53516 84.3301 9.53516C84.8926 9.53516 85.3701 9.6084 85.7627 9.75488C86.1611 9.89551 86.4951 10.0801 86.7646 10.3086C87.0342 10.5371 87.2803 10.792 87.5029 11.0732C87.7256 11.3486 87.9014 11.627 88.0303 11.9082C88.2998 12.4883 88.4668 12.9277 88.5312 13.2266L88.584 13.4375V13.4463L87.248 13.8066C87.1543 13.1387 87.0342 12.6523 86.8877 12.3477C86.7471 12.0371 86.6035 11.7852 86.457 11.5918C86.3164 11.3926 86.1582 11.2256 85.9824 11.0908C85.5664 10.7803 85.0684 10.625 84.4883 10.625C82.2031 10.625 81.0605 12.5264 81.0605 16.3291C81.0605 17.958 81.3008 19.2881 81.7812 20.3193C82.3262 21.4736 83.2285 22.0508 84.4883 22.0508C85.5195 22.0508 86.3223 21.6465 86.8965 20.8379C87.2949 20.2695 87.4941 19.6338 87.4941 18.9307L88.7773 19.1328C88.7539 19.1973 88.6982 19.3555 88.6104 19.6074C88.5283 19.8594 88.458 20.0645 88.3994 20.2227C88.3408 20.3809 88.2441 20.5977 88.1094 20.873C87.9805 21.1426 87.8486 21.3682 87.7139 21.5498C87.585 21.7314 87.4092 21.9336 87.1865 22.1562C86.9697 22.373 86.7383 22.5459 86.4922 22.6748C85.9004 22.9854 85.2939 23.1406 84.6729 23.1406C84.0518 23.1406 83.5273 23.0703 83.0996 22.9297C82.6777 22.7891 82.3086 22.5986 81.9922 22.3584C81.6758 22.1123 81.3887 21.8193 81.1309 21.4795C80.8789 21.1338 80.668 20.7646 80.498 20.3721C80.3281 19.9736 80.1875 19.5488 80.0762 19.0977ZM90.5088 23.0176V9.68457H91.6689V23.0176H90.5088ZM94.5869 21.6992C94.2998 21.2715 94.0801 20.7939 93.9277 20.2666C93.7812 19.7393 93.708 19.1855 93.708 18.6055C93.708 18.0254 93.749 17.498 93.8311 17.0234C93.9131 16.543 94.0215 16.1357 94.1562 15.8018C94.291 15.4678 94.4551 15.1719 94.6484 14.9141C94.8418 14.6504 95.041 14.4395 95.2461 14.2812C95.4512 14.123 95.6738 13.9941 95.9141 13.8945C96.3301 13.7188 96.7256 13.6309 97.1006 13.6309C97.4756 13.6309 97.7949 13.666 98.0586 13.7363C98.3223 13.8008 98.6035 13.9385 98.9023 14.1494C99.207 14.3545 99.4678 14.627 99.6846 14.9668C100.188 15.7637 100.44 16.9385 100.44 18.4912H94.8682C94.8682 20.0557 95.2637 21.1221 96.0547 21.6904C96.4473 21.9717 96.8838 22.1123 97.3643 22.1123C98.2666 22.1123 99.0342 21.5527 99.667 20.4336L100.467 20.9873C100.238 21.4092 99.9395 21.79 99.5703 22.1299C98.8672 22.7744 98.1729 23.0967 97.4873 23.0967C96.8018 23.0967 96.2188 22.9707 95.7383 22.7188C95.2578 22.4668 94.874 22.127 94.5869 21.6992ZM94.9209 17.5068H99.2803C99.2803 16.6338 99.0781 15.9102 98.6738 15.3359C98.334 14.8555 97.8506 14.6152 97.2236 14.6152C96.1982 14.6152 95.5127 15.0898 95.167 16.0391C95.0029 16.4844 94.9209 16.9736 94.9209 17.5068ZM101.82 20.7412C101.82 20.3193 101.873 19.9531 101.979 19.6426C102.084 19.3262 102.248 19.0479 102.471 18.8076C102.699 18.5615 102.957 18.3447 103.244 18.1572C103.531 17.9697 103.889 17.7998 104.316 17.6475C105.096 17.3721 106.048 17.123 107.173 16.9004C107.173 15.9746 106.994 15.3564 106.637 15.0459C106.32 14.7705 105.86 14.6328 105.257 14.6328C104.519 14.6328 103.883 14.9141 103.35 15.4766C103.121 15.7051 102.963 15.9102 102.875 16.0918L102.04 15.5381C102.696 14.2783 103.812 13.6484 105.389 13.6484C106.801 13.6484 107.703 14.1904 108.096 15.2744C108.254 15.7139 108.333 16.2471 108.333 16.874V21.6992C108.333 21.8691 108.365 22.1006 108.43 22.3936C108.494 22.6865 108.553 22.8887 108.605 23H107.437C107.261 22.9121 107.173 22.4199 107.173 21.5234C106.347 22.584 105.436 23.1143 104.439 23.1143C103.338 23.1143 102.573 22.7275 102.146 21.9541C101.929 21.5615 101.82 21.1572 101.82 20.7412ZM103.2 19.7305C103.054 20 102.98 20.3516 102.98 20.7852C102.98 21.2188 103.133 21.5527 103.438 21.7871C103.742 22.0156 104.079 22.1299 104.448 22.1299C104.823 22.1299 105.151 22.0742 105.433 21.9629C105.72 21.8516 105.98 21.708 106.215 21.5322C106.643 21.21 106.962 20.9229 107.173 20.6709V17.8848C106.06 18.1719 105.4 18.3477 105.195 18.4121C104.164 18.7461 103.499 19.1855 103.2 19.7305ZM110.398 23C110.398 23 110.398 19.9092 110.398 13.7275H111.559V16.2236C111.834 15.6143 112.045 15.1953 112.191 14.9668C112.766 14.0762 113.51 13.6309 114.424 13.6309C114.494 13.6309 114.6 13.6367 114.74 13.6484V14.6328C114.342 14.6855 114.011 14.7617 113.747 14.8613C113.483 14.9551 113.226 15.1074 112.974 15.3184C112.534 15.6816 112.062 16.4053 111.559 17.4893V23H110.398ZM116.155 21.6992C115.868 21.2715 115.648 20.7939 115.496 20.2666C115.35 19.7393 115.276 19.1855 115.276 18.6055C115.276 18.0254 115.317 17.498 115.399 17.0234C115.481 16.543 115.59 16.1357 115.725 15.8018C115.859 15.4678 116.023 15.1719 116.217 14.9141C116.41 14.6504 116.609 14.4395 116.814 14.2812C117.02 14.123 117.242 13.9941 117.482 13.8945C117.898 13.7188 118.294 13.6309 118.669 13.6309C119.044 13.6309 119.363 13.666 119.627 13.7363C119.891 13.8008 120.172 13.9385 120.471 14.1494C120.775 14.3545 121.036 14.627 121.253 14.9668C121.757 15.7637 122.009 16.9385 122.009 18.4912H116.437C116.437 20.0557 116.832 21.1221 117.623 21.6904C118.016 21.9717 118.452 22.1123 118.933 22.1123C119.835 22.1123 120.603 21.5527 121.235 20.4336L122.035 20.9873C121.807 21.4092 121.508 21.79 121.139 22.1299C120.436 22.7744 119.741 23.0967 119.056 23.0967C118.37 23.0967 117.787 22.9707 117.307 22.7188C116.826 22.4668 116.442 22.127 116.155 21.6992ZM116.489 17.5068H120.849C120.849 16.6338 120.646 15.9102 120.242 15.3359C119.902 14.8555 119.419 14.6152 118.792 14.6152C117.767 14.6152 117.081 15.0898 116.735 16.0391C116.571 16.4844 116.489 16.9736 116.489 17.5068ZM129.277 21.541C128.68 22.5781 127.848 23.0967 126.781 23.0967C126.248 23.0967 125.762 22.9648 125.322 22.7012C124.883 22.4316 124.528 22.0771 124.259 21.6377C123.696 20.7178 123.415 19.6777 123.415 18.5176C123.415 17.6562 123.553 16.8564 123.828 16.1182C124.109 15.3799 124.52 14.7822 125.059 14.3252C125.598 13.8623 126.172 13.6309 126.781 13.6309C127.396 13.6309 127.938 13.7891 128.407 14.1055C128.876 14.4219 129.166 14.7002 129.277 14.9404V9.68457H130.438V21.7168C130.438 21.8926 130.461 22.124 130.508 22.4111C130.561 22.6924 130.613 22.8887 130.666 23H129.497C129.351 22.9297 129.277 22.4434 129.277 21.541ZM124.575 18.5176C124.575 19.5547 124.76 20.4043 125.129 21.0664C125.516 21.7637 126.128 22.1123 126.966 22.1123C127.522 22.1123 127.979 21.9541 128.337 21.6377C128.624 21.3857 128.938 21.0254 129.277 20.5566V15.9424C128.656 15.0576 127.962 14.6152 127.194 14.6152C125.448 14.6152 124.575 15.916 124.575 18.5176Z" fill="black"/>
</svg>
