<svg width="24" height="24" viewBox="0 0 24 24" fill="none" xmlns="http://www.w3.org/2000/svg">
<path d="M17.4707 8C17.4707 6.4087 16.8571 4.88258 15.765 3.75736C14.6729 2.63214 13.1917 2 11.6472 2C10.1027 2 8.62143 2.63214 7.5293 3.75736C6.43718 4.88258 5.82363 6.4087 5.82363 8C5.82363 15 2.91187 17 2.91187 17H20.3825C20.3825 17 17.4707 15 17.4707 8Z" stroke="black" stroke-width="2" stroke-linecap="round" stroke-linejoin="round"/>
<path d="M13.3263 21C13.1556 21.3031 12.9107 21.5547 12.616 21.7295C12.3213 21.9044 11.9872 21.9965 11.6471 21.9965C11.3071 21.9965 10.973 21.9044 10.6783 21.7295C10.3836 21.5547 10.1387 21.3031 9.96802 21" stroke="black" stroke-width="2" stroke-linecap="round" stroke-linejoin="round"/>
<path d="M1.94116 8C1.94116 5.8 2.62057 3.7 3.88234 2" stroke="black" stroke-width="2" stroke-linecap="round" stroke-linejoin="round"/>
<path d="M21.353 8C21.353 5.8363 20.6719 3.73096 19.4119 2" stroke="black" stroke-width="2" stroke-linecap="round" stroke-linejoin="round"/>
</svg>
