<svg width="24" height="24" viewBox="0 0 24 24" fill="none" xmlns="http://www.w3.org/2000/svg">
<path d="M17.4704 8C17.4704 6.4087 16.8569 4.88258 15.7648 3.75736C14.6726 2.63214 13.1914 2 11.6469 2C10.1024 2 8.62118 2.63214 7.52906 3.75736C6.43693 4.88258 5.82339 6.4087 5.82339 8C5.82339 15 2.91162 17 2.91162 17H20.3822C20.3822 17 17.4704 15 17.4704 8Z" stroke="black" stroke-width="2" stroke-linecap="round" stroke-linejoin="round"/>
<path d="M13.326 21C13.1554 21.3031 12.9104 21.5547 12.6158 21.7295C12.3211 21.9044 11.987 21.9965 11.6469 21.9965C11.3068 21.9965 10.9727 21.9044 10.678 21.7295C10.3833 21.5547 10.1384 21.3031 9.96777 21" stroke="black" stroke-width="2" stroke-linecap="round" stroke-linejoin="round"/>
<path d="M1.94141 8C1.94141 5.8 2.62082 3.7 3.88258 2" stroke="black" stroke-width="2" stroke-linecap="round" stroke-linejoin="round"/>
<path d="M21.3533 8C21.3533 5.8363 20.6721 3.73096 19.4121 2" stroke="black" stroke-width="2" stroke-linecap="round" stroke-linejoin="round"/>
</svg>
