<svg width="22" height="22" viewBox="0 0 22 22" fill="none" xmlns="http://www.w3.org/2000/svg">
<g id="phone-call" clip-path="url(#clip0_3285_15302)">
<path id="Vector" d="M20.1663 15.5098V18.2598C20.1674 18.5151 20.1151 18.7678 20.0128 19.0017C19.9105 19.2356 19.7605 19.4456 19.5724 19.6181C19.3843 19.7907 19.1622 19.9221 18.9203 20.0039C18.6785 20.0857 18.4222 20.1161 18.168 20.0931C15.3473 19.7866 12.6377 18.8227 10.2572 17.2789C8.04233 15.8715 6.16455 13.9938 4.75715 11.7789C3.20797 9.38753 2.24388 6.66484 1.94299 3.83143C1.92008 3.57794 1.95021 3.32246 2.03145 3.08125C2.11269 2.84004 2.24326 2.6184 2.41486 2.43042C2.58645 2.24244 2.79531 2.09225 3.02813 1.98941C3.26095 1.88657 3.51263 1.83334 3.76715 1.8331H6.51715C6.96202 1.82872 7.3933 1.98625 7.7306 2.27633C8.06791 2.56642 8.28822 2.96926 8.35049 3.40976C8.46656 4.28982 8.68182 5.15393 8.99215 5.9856C9.11549 6.31369 9.14218 6.67027 9.06907 7.01307C8.99596 7.35587 8.82611 7.67053 8.57965 7.91976L7.41549 9.08393C8.72041 11.3788 10.6206 13.279 12.9155 14.5839L14.0797 13.4198C14.3289 13.1733 14.6435 13.0035 14.9863 12.9303C15.3291 12.8572 15.6857 12.8839 16.0138 13.0073C16.8455 13.3176 17.7096 13.5329 18.5897 13.6489C19.0349 13.7117 19.4416 13.936 19.7323 14.2791C20.023 14.6222 20.1775 15.0602 20.1663 15.5098Z" stroke="#00AAEE" stroke-width="2" stroke-linecap="round" stroke-linejoin="round"/>
<path id="Vector_2" d="M12.8789 1.83301C14.7473 2.02988 16.4926 2.85857 17.826 4.18204C19.1595 5.50551 20.0013 7.24447 20.2122 9.11134" stroke="#00AAEE" stroke-width="2" stroke-linecap="round" stroke-linejoin="round"/>
<path id="Vector_3" d="M12.8789 5.5C13.7805 5.67778 14.6078 6.12244 15.2534 6.77628C15.8991 7.43013 16.3333 8.26295 16.4997 9.16667" stroke="#00AAEE" stroke-width="2" stroke-linecap="round" stroke-linejoin="round"/>
</g>
<defs>
<clipPath id="clip0_3285_15302">
<rect width="22" height="22" fill="white"/>
</clipPath>
</defs>
</svg>
