<svg width="30" height="29" viewBox="0 0 30 29" fill="none" xmlns="http://www.w3.org/2000/svg">
<path d="M20 25.375V22.9583C20 21.6765 19.4732 20.4471 18.5355 19.5407C17.5979 18.6342 16.3261 18.125 15 18.125H7.5C6.17392 18.125 4.90215 18.6342 3.96447 19.5407C3.02678 20.4471 2.5 21.6765 2.5 22.9583V25.375" stroke="black" stroke-width="2" stroke-linecap="round" stroke-linejoin="round"/>
<path d="M11.25 13.2917C14.0114 13.2917 16.25 11.1277 16.25 8.45833C16.25 5.78896 14.0114 3.625 11.25 3.625C8.48858 3.625 6.25 5.78896 6.25 8.45833C6.25 11.1277 8.48858 13.2917 11.25 13.2917Z" stroke="black" stroke-width="2" stroke-linecap="round" stroke-linejoin="round"/>
<path d="M23.75 9.6665V16.9165" stroke="black" stroke-width="2" stroke-linecap="round" stroke-linejoin="round"/>
<path d="M27.5 13.2917H20" stroke="black" stroke-width="2" stroke-linecap="round" stroke-linejoin="round"/>
</svg>
