<svg width="25" height="24" viewBox="0 0 25 24" fill="none" xmlns="http://www.w3.org/2000/svg">
<path d="M16.6668 21V19C16.6668 17.9391 16.2278 16.9217 15.4464 16.1716C14.665 15.4214 13.6052 15 12.5002 15H6.25016C5.14509 15 4.08529 15.4214 3.30388 16.1716C2.52248 16.9217 2.0835 17.9391 2.0835 19V21" stroke="#3F3F3F" stroke-width="2" stroke-linecap="round" stroke-linejoin="round"/>
<path d="M9.37516 11C11.6763 11 13.5418 9.20914 13.5418 7C13.5418 4.79086 11.6763 3 9.37516 3C7.07398 3 5.2085 4.79086 5.2085 7C5.2085 9.20914 7.07398 11 9.37516 11Z" stroke="#3F3F3F" stroke-width="2" stroke-linecap="round" stroke-linejoin="round"/>
<path d="M19.792 8V14" stroke="#3F3F3F" stroke-width="2" stroke-linecap="round" stroke-linejoin="round"/>
<path d="M22.917 11H16.667" stroke="#3F3F3F" stroke-width="2" stroke-linecap="round" stroke-linejoin="round"/>
</svg>
