<svg width="28" height="24" viewBox="0 0 28 24" fill="none" xmlns="http://www.w3.org/2000/svg">
<path d="M4.66732 20H23.334C23.9528 20 24.5463 19.7893 24.9839 19.4142C25.4215 19.0391 25.6673 18.5304 25.6673 18V8C25.6673 7.46957 25.4215 6.96086 24.9839 6.58579C24.5463 6.21071 23.9528 6 23.334 6H14.0823C13.698 5.9983 13.3201 5.91525 12.9823 5.75824C12.6444 5.60123 12.357 5.37512 12.1457 5.1L11.189 3.9C10.9776 3.62488 10.6902 3.39877 10.3524 3.24176C10.0145 3.08475 9.63663 3.0017 9.25232 3H4.66732C4.04848 3 3.45499 3.21071 3.0174 3.58579C2.57982 3.96086 2.33398 4.46957 2.33398 5V18C2.33398 19.1 3.38398 20 4.66732 20Z" stroke="black" stroke-width="2" stroke-linecap="round" stroke-linejoin="round"/>
<path d="M2.33398 10H25.6673" stroke="black" stroke-width="2" stroke-linecap="round" stroke-linejoin="round"/>
</svg>
