<svg width="30" height="26" viewBox="0 0 30 26" fill="none" xmlns="http://www.w3.org/2000/svg">
<path d="M5 21.6667H25C25.663 21.6667 26.2989 21.4384 26.7678 21.0321C27.2366 20.6257 27.5 20.0746 27.5 19.5V8.66667C27.5 8.09203 27.2366 7.54093 26.7678 7.1346C26.2989 6.72827 25.663 6.5 25 6.5H15.0875C14.6757 6.49815 14.2709 6.40819 13.9089 6.23809C13.5469 6.068 13.239 5.82305 13.0125 5.525L11.9875 4.225C11.761 3.92695 11.4531 3.682 11.0911 3.51191C10.7291 3.34181 10.3243 3.25185 9.9125 3.25H5C4.33696 3.25 3.70107 3.47827 3.23223 3.8846C2.76339 4.29093 2.5 4.84203 2.5 5.41667V19.5C2.5 20.6917 3.625 21.6667 5 21.6667Z" stroke="black" stroke-width="2" stroke-linecap="round" stroke-linejoin="round"/>
<path d="M2.5 10.8335H27.5" stroke="black" stroke-width="2" stroke-linecap="round" stroke-linejoin="round"/>
</svg>
