<svg width="24" height="24" viewBox="0 0 24 24" fill="none" xmlns="http://www.w3.org/2000/svg">
<path d="M21.9999 11.0003V12.0003C21.9898 14.0186 21.3691 15.9867 20.2196 17.6457C19.0701 19.3047 17.4454 20.577 15.5592 21.2954C13.6731 22.0137 11.6137 22.1445 9.65175 21.6706C7.68984 21.1966 5.91727 20.1401 4.56707 18.6399C3.21686 17.1396 2.35223 15.2659 2.08684 13.2651C1.82144 11.2643 2.1677 9.23 3.08011 7.42965C3.99251 5.62931 5.42835 4.14719 7.19885 3.17815C8.96935 2.20911 10.9917 1.79851 12.9999 2.00032" stroke="white" stroke-width="2" stroke-linecap="round" stroke-linejoin="round"/>
<path d="M8 14C8 14 9.5 16 12 16C14.5 16 16 14 16 14" stroke="white" stroke-width="2" stroke-linecap="round" stroke-linejoin="round"/>
<path d="M9 9H9.01" stroke="white" stroke-width="2" stroke-linecap="round" stroke-linejoin="round"/>
<path d="M15 9H15.01" stroke="white" stroke-width="2" stroke-linecap="round" stroke-linejoin="round"/>
<path d="M16 5H22" stroke="white" stroke-width="2" stroke-linecap="round" stroke-linejoin="round"/>
<path d="M19 2V8" stroke="white" stroke-width="2" stroke-linecap="round" stroke-linejoin="round"/>
</svg>
