<svg width="159" height="31" viewBox="0 0 159 31" fill="none" xmlns="http://www.w3.org/2000/svg">
<rect width="159" height="31" rx="15.5" fill="#09AD06" fill-opacity="0.2"/>
<circle cx="24.5" cy="15.5" r="7.5" fill="#00E632"/>
<path d="M54.306 22H55.836L56.988 17.95H61.83L63 22H64.512L60.516 8.986H58.32L54.306 22ZM57.33 16.744L59.292 9.958H59.49L61.434 16.744H57.33ZM66.3041 25.42H67.6001V20.992C68.1941 21.784 68.9681 22.162 70.0301 22.162C72.5501 22.162 73.9541 20.47 73.9541 17.338C73.9541 14.17 72.5141 12.424 70.0481 12.424C68.9141 12.424 68.1941 12.892 67.5281 13.738L67.3121 12.586H66.3041V25.42ZM67.6001 19.642V14.944C68.1941 14.008 69.0221 13.54 69.9761 13.54C71.7221 13.54 72.6041 14.818 72.6041 17.356C72.6041 19.786 71.6861 21.082 70.1201 21.082C69.0761 21.082 68.3021 20.632 67.6001 19.642ZM76.0424 25.42H77.3384V20.992C77.9324 21.784 78.7064 22.162 79.7684 22.162C82.2884 22.162 83.6924 20.47 83.6924 17.338C83.6924 14.17 82.2524 12.424 79.7864 12.424C78.6524 12.424 77.9324 12.892 77.2664 13.738L77.0504 12.586H76.0424V25.42ZM77.3384 19.642V14.944C77.9324 14.008 78.7604 13.54 79.7144 13.54C81.4604 13.54 82.3424 14.818 82.3424 17.356C82.3424 19.786 81.4244 21.082 79.8584 21.082C78.8144 21.082 78.0404 20.632 77.3384 19.642ZM85.7807 22H87.1127V16.762C87.6887 14.818 88.6967 13.792 89.9747 13.792H90.1367V12.496C90.0287 12.478 89.9387 12.478 89.8307 12.478C88.5887 12.478 87.7427 13.216 87.1127 14.728V12.586H85.7807V22ZM90.7526 17.284C90.7526 20.416 92.2286 22.162 94.6766 22.162C97.1246 22.162 98.6006 20.416 98.6006 17.284C98.6006 14.152 97.1246 12.424 94.6766 12.424C92.2286 12.424 90.7526 14.152 90.7526 17.284ZM92.0846 17.284C92.0846 14.818 93.0206 13.54 94.6766 13.54C96.3326 13.54 97.2506 14.818 97.2506 17.302C97.2506 19.768 96.3146 21.064 94.6766 21.064C93.0206 21.064 92.0846 19.768 92.0846 17.284ZM102.451 22H104.143L107.221 12.586H105.889L103.297 20.65L100.705 12.586H99.3734L102.451 22ZM114.71 19.354C114.152 20.452 113.198 21.046 112.028 21.046C110.516 21.046 109.472 19.858 109.472 17.86V17.554H115.466V17.158C115.466 14.116 114.08 12.424 111.794 12.424C109.562 12.424 108.122 14.188 108.122 17.284C108.122 20.488 109.472 22.162 111.902 22.162C113.702 22.162 114.926 21.46 115.664 19.948L114.71 19.354ZM109.49 16.438C109.562 14.566 110.426 13.54 111.812 13.54C113.144 13.54 114.044 14.584 114.08 16.438H109.49ZM124.312 8.986H123.016V13.666C122.494 12.838 121.684 12.424 120.568 12.424C118.174 12.424 116.788 14.134 116.788 17.248C116.788 20.38 118.192 22.144 120.496 22.144C121.648 22.144 122.422 21.748 123.124 20.812L123.43 22H124.438C124.312 21.01 124.312 20.038 124.312 19.066V8.986ZM123.016 14.944V19.642C122.44 20.578 121.648 21.046 120.712 21.046C118.984 21.046 118.138 19.75 118.138 17.158C118.138 14.782 119.074 13.504 120.568 13.504C121.576 13.504 122.35 13.972 123.016 14.944Z" fill="#3F3F3F"/>
</svg>
