<svg xmlns="http://www.w3.org/2000/svg" fill="none" viewBox="0 0 82.74 64.51">
<path d="M13.6949 0.189453C12.9822 0.189453 12.4023 0.829275 12.4023 1.61565C12.4023 2.40203 12.9822 3.04185 13.6949 3.04185H42.7612C43.4739 3.04185 44.0537 2.40203 44.0537 1.61565C44.0537 0.829275 43.4739 0.189453 42.7612 0.189453H13.6949Z" fill="#00AAEE"/>
<path d="M13.6949 28.4727C12.9822 28.4727 12.4023 29.1125 12.4023 29.8989C12.4023 30.6852 12.9822 31.3251 13.6949 31.3251H42.7612C43.4739 31.3251 44.0537 30.6852 44.0537 29.8989C44.0537 29.1125 43.4739 28.4727 42.7612 28.4727H13.6949Z" fill="#156DBF"/>
<path d="M19.1871 9.61719C18.4744 9.61719 17.8945 10.257 17.8945 11.0434C17.8945 11.8298 18.4744 12.4696 19.1871 12.4696H67.8216C68.5343 12.4696 69.1142 11.8298 69.1142 11.0434C69.1142 10.257 68.5343 9.61719 67.8216 9.61719H19.1871Z" fill="#156DBF"/>
<path d="M19.1871 19.0449C18.4744 19.0449 17.8945 19.6847 17.8945 20.4711C17.8945 21.2575 18.4744 21.8973 19.1871 21.8973H67.8216C68.5343 21.8973 69.1142 21.2575 69.1142 20.4711C69.1142 19.6847 68.5343 19.0449 67.8216 19.0449H19.1871Z" fill="#00AAEE"/>
<path d="M6.14718 2.68285C6.68151 2.68285 7.11467 2.20492 7.11467 1.61535C7.11467 1.02579 6.68151 0.547852 6.14718 0.547852C5.61285 0.547852 5.17969 1.02579 5.17969 1.61535C5.17969 2.20492 5.61285 2.68285 6.14718 2.68285Z" fill="#00AAEE"/>
<path d="M6.14718 30.9661C6.68151 30.9661 7.11467 30.4881 7.11467 29.8986C7.11467 29.309 6.68151 28.8311 6.14718 28.8311C5.61285 28.8311 5.17969 29.309 5.17969 29.8986C5.17969 30.4881 5.61285 30.9661 6.14718 30.9661Z" fill="#156DBF"/>
<path d="M12.112 12.1106C12.6463 12.1106 13.0795 11.6326 13.0795 11.0431C13.0795 10.4535 12.6463 9.97559 12.112 9.97559C11.5777 9.97559 11.1445 10.4535 11.1445 11.0431C11.1445 11.6326 11.5777 12.1106 12.112 12.1106Z" fill="#156DBF"/>
<path d="M12.112 21.5383C12.6463 21.5383 13.0795 21.0604 13.0795 20.4708C13.0795 19.8813 12.6463 19.4033 12.112 19.4033C11.5777 19.4033 11.1445 19.8813 11.1445 20.4708C11.1445 21.0604 11.5777 21.5383 12.112 21.5383Z" fill="#00AAEE"/>
<path d="M2.04569 2.6964L1.65475 2.64952C1.69308 2.50623 1.71193 2.35353 1.73259 2.21443C1.82845 1.5688 1.85443 0.91535 1.80343 0.263421C1.78535 0.0322505 1.55267 -0.0875372 1.39053 0.0747103L0.545491 0.920312C0.314385 1.15157 0.657304 1.52812 0.887553 1.29772C1.03961 1.14557 1.19167 0.993395 1.34373 0.841237C1.34708 1.13725 1.33689 1.43333 1.30837 1.72814C1.28582 1.96111 1.25353 2.19493 1.20603 2.42338C1.19495 2.4767 1.18442 2.53911 1.1602 2.59021C1.09176 2.582 1.02332 2.57381 0.954881 2.56559C0.725439 2.53809 0.664557 2.86443 0.78385 3.02118C0.909676 3.18652 1.11956 3.21306 1.29397 3.14L2.04569 3.23014C2.17576 3.24574 2.28756 3.09631 2.28756 2.96327C2.28756 2.80602 2.17613 2.71203 2.04569 2.6964ZM1.10751 2.64828C1.10206 2.65046 1.09724 2.6522 1.09704 2.65074C1.09606 2.64394 1.10077 2.64462 1.10751 2.64828Z" fill="#00AAEE"/>
<path d="M2.1724 12.2365C1.94946 12.2167 1.72653 12.1969 1.50358 12.1772C1.92186 11.7516 2.22694 11.1747 2.28094 10.5563C2.32025 10.106 2.14622 9.60029 1.75638 9.40077C1.36401 9.19995 0.888616 9.36334 0.737437 9.83036C0.578373 10.3218 1.01259 10.8487 1.47154 10.6886C1.76731 10.5854 1.64096 10.0699 1.34294 10.1739C1.27118 10.1989 1.18928 10.1493 1.18462 10.056C1.17967 9.95691 1.27106 9.86846 1.35184 9.84813C1.68308 9.76478 1.81761 10.2329 1.801 10.5051C1.7582 11.2065 1.24157 11.8405 0.702291 12.1534C0.474168 12.2858 0.602032 12.631 0.824369 12.6507C1.27372 12.6906 1.72305 12.7304 2.1724 12.7702C2.30278 12.7818 2.41427 12.6393 2.41427 12.5033C2.41427 12.3493 2.30315 12.248 2.1724 12.2365Z" fill="#00AAEE"/>
<path d="M2.26777 20.2805C2.45864 20.051 2.50932 19.6983 2.41687 19.4067C2.31232 19.077 2.04244 18.8335 1.73636 18.756C1.40566 18.6722 1.06577 18.7681 0.78183 18.9627C0.517892 19.1435 0.760503 19.6055 1.02599 19.4236C1.29412 19.2398 1.72362 19.1489 1.92475 19.4979C1.99405 19.6182 2.00754 19.8064 1.9162 19.9186C1.89179 19.9485 1.86263 19.9682 1.83198 19.9828C1.72482 19.9452 1.61085 19.9244 1.4914 19.9282C1.24913 19.936 1.16556 20.2834 1.36934 20.4255C1.49529 20.5134 1.64029 20.5472 1.78287 20.5358C2.02449 20.6751 2.16064 20.9908 2.04683 21.305C1.89781 21.7163 1.41472 21.8059 1.13298 21.5022C0.910146 21.2619 0.56777 21.639 0.790913 21.8796C1.04847 22.1572 1.41484 22.2713 1.76712 22.1921C2.10948 22.1151 2.37374 21.835 2.50041 21.4833C2.65823 21.045 2.53781 20.5857 2.26777 20.2805Z" fill="#00AAEE"/>
<path d="M2.37568 29.7829C2.4222 29.2841 2.46871 28.7853 2.51523 28.2864C2.52863 28.1428 2.39448 28.0195 2.27336 28.0195C2.13144 28.0195 2.04492 28.1424 2.03149 28.2864L1.89349 29.7663C1.44422 29.7712 0.994931 29.7768 0.545642 29.7799C0.543054 29.7799 0.54144 29.7796 0.53892 29.7796L0.540376 29.7763L0.598935 29.6616C0.631462 29.598 0.663998 29.5343 0.696525 29.4706L1.12594 28.6301C1.27901 28.3305 0.861287 28.0612 0.708238 28.3607C0.542335 28.6855 0.376422 29.0102 0.210518 29.3349C0.129885 29.4928 0.00910657 29.6677 0.000503982 29.8544C-0.00885486 30.0577 0.113094 30.2248 0.285965 30.2833C0.426162 30.3307 0.582558 30.3133 0.726879 30.3118L1.2303 30.3067C1.43475 30.3047 1.6392 30.3026 1.84366 30.3006C1.80603 30.7041 1.7684 31.1076 1.73077 31.5111C1.71739 31.6547 1.85153 31.778 1.97264 31.778C2.11457 31.778 2.20109 31.6551 2.21452 31.5111C2.25248 31.1041 2.29043 30.6971 2.32839 30.2901C2.55442 30.2397 2.57056 29.8735 2.37568 29.7829ZM0.436535 29.7764C0.414165 29.7791 0.418219 29.762 0.436535 29.7764V29.7764Z" fill="#00AAEE"/>
<path d="M79.0318 64.5062H38.2361C36.1911 64.5062 34.5273 62.6706 34.5273 60.4141V28.2112C34.5273 25.9549 36.1911 24.1191 38.2361 24.1191H79.0318C81.0768 24.1191 82.7405 25.9549 82.7405 28.2112V60.4141C82.7405 62.6706 81.0768 64.5062 79.0318 64.5062Z" fill="white"/>
<path d="M79.0318 64.5062H38.2361C36.1911 64.5062 34.5273 62.6706 34.5273 60.4141V28.2112C34.5273 25.9549 36.1911 24.1191 38.2361 24.1191H79.0318C81.0768 24.1191 82.7405 25.9549 82.7405 28.2112V60.4141C82.7405 62.6706 81.0768 64.5062 79.0318 64.5062ZM56.5969 24.475C44.5863 24.475 34.8498 35.2179 34.8498 48.47V60.4141C34.8498 62.4776 36.3659 64.1504 38.2361 64.1504H79.0318C80.902 64.1504 82.418 62.4776 82.418 60.4141V28.2112C82.418 26.1477 80.902 24.475 79.0318 24.475H56.5969Z" fill="#156DBF"/>
<path d="M48.5363 52.7134H42.0864C41.7308 52.7134 41.4414 52.3941 41.4414 52.0017C41.4414 51.6093 41.7308 51.29 42.0864 51.29H48.5363C48.892 51.29 49.1813 51.6093 49.1813 52.0017C49.1813 52.3941 48.892 52.7134 48.5363 52.7134Z" fill="#CCCCCC"/>
<path d="M62.5649 57.9233H42.0864C41.7308 57.9233 41.4414 57.6041 41.4414 57.2117C41.4414 56.8193 41.7308 56.5 42.0864 56.5H62.5649C62.9206 56.5 63.2099 56.8193 63.2099 57.2117C63.2099 57.6041 62.9206 57.9233 62.5649 57.9233Z" fill="#CCCCCC"/>
<path d="M65.6664 53.1196C71.2769 53.1196 75.8251 48.1013 75.8251 41.9109C75.8251 35.7205 71.2769 30.7021 65.6664 30.7021C60.056 30.7021 55.5078 35.7205 55.5078 41.9109C55.5078 48.1013 60.056 53.1196 65.6664 53.1196Z" fill="#156DBF"/>
<path d="M63.575 37.6299C63.4401 37.6299 63.3058 37.6707 63.1857 37.7518C62.9618 37.9028 62.8281 38.1657 62.8281 38.4552V45.3673C62.8281 45.6568 62.9618 45.9198 63.1857 46.0708C63.4096 46.2217 63.6826 46.233 63.9161 46.1011L70.0297 42.6451C70.2842 42.5012 70.4362 42.2269 70.4362 41.9113C70.4362 41.5957 70.2842 41.3213 70.0297 41.1775L63.9161 37.7214C63.8079 37.6603 63.6912 37.6299 63.575 37.6299Z" fill="white"/>
</svg>