<svg width="27" height="25" viewBox="0 0 27 25" fill="none" xmlns="http://www.w3.org/2000/svg">
<path d="M21.9375 12.5H14.7386L10.5199 7.8125H4.21875C3.54763 7.81312 2.90418 8.06025 2.42963 8.49965C1.95507 8.93906 1.68817 9.53484 1.6875 10.1562V14.8438C1.68795 15.258 1.86588 15.6552 2.18225 15.9481C2.49862 16.2411 2.92758 16.4058 3.375 16.4062V21.875C3.37545 22.2893 3.55338 22.6865 3.86975 22.9794C4.18612 23.2723 4.61508 23.4371 5.0625 23.4375H8.4375C8.88492 23.4371 9.31388 23.2723 9.63025 22.9794C9.94662 22.6865 10.1246 22.2893 10.125 21.875V16.4062H8.4375V21.875H5.0625V14.8438H3.375V10.1562C3.375 9.94905 3.46389 9.75034 3.62213 9.60382C3.78036 9.45731 3.99497 9.375 4.21875 9.375H9.73012L13.9489 14.0625H21.9375C22.1613 14.0625 22.3759 14.1448 22.5341 14.2913C22.6924 14.4378 22.7812 14.6365 22.7812 14.8438V17.1875H21.0938V21.875H18.5625V17.1875H16.875V21.875C16.8754 22.2893 17.0534 22.6865 17.3698 22.9794C17.6861 23.2723 18.1151 23.4371 18.5625 23.4375H21.0938C21.5412 23.4371 21.9701 23.2723 22.2865 22.9794C22.6029 22.6865 22.7808 22.2893 22.7812 21.875V18.75C23.2287 18.7496 23.6576 18.5848 23.974 18.2919C24.2904 17.999 24.4683 17.6018 24.4688 17.1875V14.8438C24.4681 14.2223 24.2012 13.6266 23.7266 13.1872C23.2521 12.7477 22.6086 12.5006 21.9375 12.5Z" fill="black"/>
<path d="M19.8281 11.7188C19.2441 11.7188 18.6731 11.5584 18.1875 11.2579C17.7018 10.9575 17.3233 10.5304 17.0998 10.0308C16.8763 9.53113 16.8178 8.98134 16.9317 8.45093C17.0457 7.92051 17.3269 7.43329 17.74 7.05088C18.153 6.66847 18.6792 6.40805 19.252 6.30254C19.8249 6.19703 20.4186 6.25118 20.9582 6.45814C21.4979 6.6651 21.9591 7.01557 22.2836 7.46524C22.6081 7.9149 22.7813 8.44357 22.7813 8.98438C22.7804 9.70932 22.4689 10.4043 21.9153 10.917C21.3617 11.4296 20.6111 11.7179 19.8281 11.7188ZM19.8281 7.8125C19.5778 7.8125 19.3331 7.88123 19.125 8.01C18.9169 8.13876 18.7546 8.32179 18.6588 8.53592C18.5631 8.75005 18.538 8.98568 18.5868 9.213C18.6357 9.44032 18.7562 9.64913 18.9332 9.81302C19.1102 9.97691 19.3357 10.0885 19.5812 10.1337C19.8267 10.179 20.0812 10.1557 20.3125 10.067C20.5437 9.97835 20.7414 9.82815 20.8805 9.63543C21.0195 9.44272 21.0938 9.21615 21.0938 8.98438C21.0933 8.6737 20.9598 8.37587 20.7226 8.15619C20.4853 7.93651 20.1637 7.81291 19.8281 7.8125ZM6.75 7.03125C6.08249 7.03125 5.42997 6.84797 4.87495 6.50459C4.31994 6.16121 3.88735 5.67316 3.63191 5.10214C3.37646 4.53112 3.30963 3.90278 3.43985 3.29659C3.57008 2.6904 3.89151 2.13358 4.36352 1.69654C4.83552 1.2595 5.43689 0.961876 6.09157 0.841297C6.74626 0.720719 7.42486 0.782604 8.04156 1.01913C8.65826 1.25565 9.18536 1.65619 9.55621 2.17009C9.92706 2.684 10.125 3.28818 10.125 3.90625C10.1241 4.7348 9.76824 5.52917 9.1355 6.11505C8.50276 6.70092 7.64483 7.03042 6.75 7.03125ZM6.75 2.34375C6.41625 2.34375 6.08998 2.43539 5.81248 2.60708C5.53497 2.77877 5.31868 3.0228 5.19095 3.30831C5.06323 3.59382 5.02981 3.90798 5.09493 4.21108C5.16004 4.51418 5.32076 4.79259 5.55676 5.01111C5.79276 5.22963 6.09344 5.37844 6.42079 5.43873C6.74813 5.49902 7.08743 5.46807 7.39578 5.34981C7.70413 5.23155 7.96768 5.03128 8.15311 4.77433C8.33853 4.51738 8.4375 4.21528 8.4375 3.90625C8.43705 3.49198 8.25912 3.09479 7.94275 2.80185C7.62638 2.50892 7.19742 2.34416 6.75 2.34375Z" fill="black"/>
</svg>
